<?xml version="1.0" encoding="UTF-8" standalone="no"?>
<!-- Created with Inkscape (http://www.inkscape.org/) -->
<svg
   xmlns:svg="http://www.w3.org/2000/svg"
   xmlns="http://www.w3.org/2000/svg"
   xmlns:xlink="http://www.w3.org/1999/xlink"
   version="1.0"
   width="180"
   height="90"
   viewBox="-26.361 -29.699 180 90"
   id="svg2654"
   xml:space="preserve">
<defs
   id="defs2656"><linearGradient
     id="linearGradient6910"><stop
       id="stop6912"
       style="stop-color:#ffffff;stop-opacity:1"
       offset="0" /><stop
       id="stop6914"
       style="stop-color:#ffffff;stop-opacity:0"
       offset="1" /></linearGradient><linearGradient
     id="linearGradient6902"><stop
       id="stop6904"
       style="stop-color:#ffffff;stop-opacity:1"
       offset="0" /><stop
       id="stop6906"
       style="stop-color:#ffffff;stop-opacity:0"
       offset="1" /></linearGradient><linearGradient
     x1="17.395906"
     y1="15.881111"
     x2="27.67215"
     y2="28.809288"
     id="linearGradient6908"
     xlink:href="#linearGradient6902"
     gradientUnits="userSpaceOnUse" /><linearGradient
     x1="108.22464"
     y1="18.201553"
     x2="94.633476"
     y2="30.135254"
     id="linearGradient6916"
     xlink:href="#linearGradient6910"
     gradientUnits="userSpaceOnUse" /></defs>
<g
   id="g2891">
	<linearGradient
   x1="55.2915"
   y1="-19.3125"
   x2="69.639702"
   y2="72.217796"
   id="SVGID_1_"
   gradientUnits="userSpaceOnUse">
		<stop
   id="stop2894"
   style="stop-color:#ffffff;stop-opacity:1"
   offset="0" />
		<stop
   id="stop2896"
   style="stop-color:#000000;stop-opacity:1"
   offset="1" />
	</linearGradient>
	<path
   d="M 93.331,0.001 C 85.732,7.605 75.233,12.301 63.64,12.301 C 52.041,12.301 41.543,7.605 33.946,0.003 L 33.946,0.003 L 0,33.94 C 35.148,69.087 92.129,69.087 127.278,33.94 L 93.331,0.001 C 93.331,0.001 93.331,0.001 93.331,0.001 z"
   id="path2898"
   style="fill:url(#SVGID_1_)" />
	<radialGradient
   cx="42.623001"
   cy="2.1533"
   r="68.116402"
   id="SVGID_2_"
   gradientUnits="userSpaceOnUse">
		<stop
   id="stop2901"
   style="stop-color:#ffffff;stop-opacity:1"
   offset="0" />
		<stop
   id="stop2903"
   style="stop-color:#616161;stop-opacity:1"
   offset="1" />
	</radialGradient>
	<path
   d="M 63.639,58.301 C 40.804,58.301 19.294,49.659 2.846,33.923 L 33.975,2.8 C 42.096,10.231 52.554,14.301 63.639,14.301 C 74.721,14.301 85.178,10.231 93.298,2.798 L 124.432,33.923 C 107.984,49.659 86.474,58.301 63.639,58.301 L 63.639,58.301 z"
   id="path2905"
   style="fill:url(#SVGID_2_)" />
</g>
<path
   d="M 41.68,12.049 C 42.829,13.123 42.712,14.736 41.419,15.631 L 15.758,37.698 C 14.702,38.869 12.763,39.118 11.447,38.256 L 7.601,35.928 C 6.23,35.156 5.915,33.523 6.903,32.295 L 32.252,7.633 C 33.487,6.655 35.487,6.675 36.7,7.679 L 41.68,12.049 z"
   id="path2907"
   style="opacity:0.8;fill:url(#linearGradient6908);fill-opacity:1" />
<path
   d="M 83.505,12.034 C 93.404,7.95 93.056,6.272 101.965,14.85 C 105.331,18.087 122.433,32.129 117.976,36.582 C 105.367,49.198 106.352,33.556 101.118,26.936 C 98.014,23.011 93.655,20.055 88.859,18.536 C 87.509,18.107 74.575,14.006 83.505,12.034"
   id="path2909"
   style="opacity:0.8;fill:url(#linearGradient6916);fill-opacity:1" />
<g
   transform="translate(-11.9727,-110.5613)"
   id="g4205">
					<path
   d="M 70.6621,149.8496 C 70.2397,149.7861 69.9058,149.4609 69.8291,149.042 L 69.8291,149.042 L 69.4131,146.7549 L 69.3403,147.082 C 69.2387,147.5381 68.833,147.8632 68.3647,147.8632 L 68.3647,147.8632 L 64.6127,147.8632 C 64.0595,147.8632 63.6117,147.4159 63.6117,146.8622 L 63.6117,146.8622 C 63.6117,146.3095 64.0595,145.8622 64.6127,145.8622 L 64.6127,145.8622 L 67.5648,145.8622 L 68.5428,141.5136 C 68.6463,141.0517 69.0648,140.7236 69.5369,140.7343 L 69.5369,140.7343 C 70.0115,140.7431 70.4153,141.0868 70.5003,141.5546 L 70.5003,141.5546 L 71.3148,146.0302 C 71.4764,145.9228 71.6688,145.8622 71.87,145.8622 L 71.87,145.8622 L 76.0072,145.8622 L 76.9413,141.5419 C 77.0429,141.0722 77.4638,140.7401 77.9423,140.7528 L 77.9423,140.7528 C 78.4228,140.7655 78.8266,141.1171 78.9037,141.5917 L 78.9037,141.5917 L 79.6351,146.0526 C 79.8031,145.9305 80.0081,145.8622 80.223,145.8622 L 80.223,145.8622 L 82.6224,145.8642 C 83.1712,145.8642 83.6204,146.3115 83.6204,146.8622 L 83.6204,146.8622 C 83.6204,147.414 83.1712,147.8612 82.6224,147.8612 L 82.6224,147.8612 L 80.7884,147.8612 L 79.9271,149.3026 C 79.7113,149.661 79.2943,149.8495 78.8822,149.7714 L 78.8822,149.7714 C 78.4706,149.6923 78.1512,149.3652 78.0829,148.9511 L 78.0829,148.9511 L 77.7821,147.1113 C 77.6688,147.5517 77.2704,147.8633 76.8129,147.8633 L 76.8129,147.8633 L 72.4706,147.8613 L 71.6981,149.3281 C 71.5233,149.6592 71.1815,149.8623 70.8158,149.8623 L 70.8158,149.8623 C 70.7651,149.8623 70.7139,149.8584 70.6621,149.8496 L 70.6621,149.8496 z"
   id="path4207"
   style="fill:#666666" />
				</g><g
   transform="translate(-11.9727,-110.5613)"
   id="g4209">
					<path
   d="M 71.6621,150.8506 C 71.2412,150.7861 70.9058,150.461 70.8291,150.042 L 70.8291,150.042 L 70.4145,147.7529 L 70.3398,148.082 C 70.2382,148.5381 69.8325,148.8632 69.3642,148.8632 L 69.3642,148.8632 L 65.6137,148.8632 C 65.0605,148.8632 64.6132,148.4159 64.6132,147.8622 L 64.6132,147.8622 C 64.6132,147.3095 65.0605,146.8612 65.6137,146.8612 L 65.6137,146.8612 L 68.5644,146.8612 L 69.5424,142.5145 C 69.6459,142.0506 70.0644,141.7254 70.537,141.7333 L 70.537,141.7333 C 71.0111,141.744 71.4154,142.0878 71.5004,142.5536 L 71.5004,142.5536 L 72.3149,147.0302 C 72.4765,146.9228 72.6689,146.8613 72.8701,146.8613 L 72.8701,146.8613 L 77.0058,146.8613 L 77.9399,142.541 C 78.0415,142.0713 78.4643,141.7422 78.9428,141.7539 L 78.9428,141.7539 C 79.4233,141.7646 79.8256,142.1172 79.9037,142.5908 L 79.9037,142.5908 L 80.6351,147.0537 C 80.8031,146.9326 81.0081,146.8633 81.222,146.8633 L 81.222,146.8633 L 83.6214,146.8633 C 84.1722,146.8633 84.6194,147.3115 84.6194,147.8623 L 84.6194,147.8623 C 84.6194,148.4131 84.1721,148.8613 83.6214,148.8613 L 83.6214,148.8613 L 81.7894,148.8613 L 80.9271,150.3027 C 80.7123,150.6621 80.2953,150.8506 79.8832,150.7715 L 79.8832,150.7715 C 79.4711,150.6924 79.1498,150.3653 79.0834,149.9512 L 79.0834,149.9512 L 78.7816,148.1065 C 78.6703,148.5489 78.2728,148.8633 77.8138,148.8633 L 77.8138,148.8633 L 73.4705,148.8613 L 72.6976,150.3281 C 72.5233,150.6592 72.181,150.8623 71.8158,150.8623 L 71.8158,150.8623 C 71.7651,150.8623 71.7134,150.8584 71.6621,150.8506 L 71.6621,150.8506 z"
   id="path4211"
   style="fill:#ffffff" />
				</g></svg>