<?xml version="1.0" encoding="UTF-8" standalone="no"?>
<!-- Created with Inkscape (http://www.inkscape.org/) -->
<svg
   xmlns:svg="http://www.w3.org/2000/svg"
   xmlns="http://www.w3.org/2000/svg"
   xmlns:xlink="http://www.w3.org/1999/xlink"
   version="1.0"
   width="90"
   height="180"
   viewBox="-29.597 -26.349 90 180"
   id="svg5898"
   xml:space="preserve">
<defs
   id="defs5900"><linearGradient
     id="linearGradient6500"><stop
       id="stop6502"
       style="stop-color:#ffffff;stop-opacity:1"
       offset="0" /><stop
       id="stop6504"
       style="stop-color:#ffffff;stop-opacity:0"
       offset="1" /></linearGradient><linearGradient
     id="linearGradient6492"><stop
       id="stop6494"
       style="stop-color:#ffffff;stop-opacity:1"
       offset="0" /><stop
       id="stop6496"
       style="stop-color:#ffffff;stop-opacity:0"
       offset="1" /></linearGradient><linearGradient
     x1="17.752398"
     y1="19.554615"
     x2="27.872879"
     y2="31.843771"
     id="linearGradient6498"
     xlink:href="#linearGradient6492"
     gradientUnits="userSpaceOnUse" /><linearGradient
     x1="33.656013"
     y1="119.67509"
     x2="32.210228"
     y2="91.120872"
     id="linearGradient6506"
     xlink:href="#linearGradient6500"
     gradientUnits="userSpaceOnUse" /></defs>
<g
   id="g6135">
	
		<radialGradient
   cx="41.501999"
   cy="92.789101"
   r="72.989304"
   id="SVGID_1_"
   gradientUnits="userSpaceOnUse"
   gradientTransform="matrix(1,-3.2e-3,3.2e-3,1,-0.1491,0.1264)">
		<stop
   id="stop6138"
   style="stop-color:#e1ff00;stop-opacity:1"
   offset="0" />
		<stop
   id="stop6140"
   style="stop-color:#ddfc00;stop-opacity:1"
   offset="0.1767" />
		<stop
   id="stop6142"
   style="stop-color:#d1f301;stop-opacity:1"
   offset="0.3522" />
		<stop
   id="stop6144"
   style="stop-color:#bde403;stop-opacity:1"
   offset="0.52719998" />
		<stop
   id="stop6146"
   style="stop-color:#a1ce05;stop-opacity:1"
   offset="0.70209998" />
		<stop
   id="stop6148"
   style="stop-color:#7eb308;stop-opacity:1"
   offset="0.87510002" />
		<stop
   id="stop6150"
   style="stop-color:#5f9c0b;stop-opacity:1"
   offset="1" />
	</radialGradient>
	<path
   d="M 33.839,0 L 0,34.049 C 7.626,41.629 12.366,52.116 12.403,63.709 C 12.44,75.301 7.766,85.819 0.189,93.448 L 34.245,127.279 C 69.281,92.018 69.099,35.036 33.839,0 z"
   id="path6152"
   style="fill:url(#SVGID_1_)" />
	
		<radialGradient
   cx="15.7656"
   cy="11.9546"
   r="94.482903"
   id="SVGID_2_"
   gradientUnits="userSpaceOnUse"
   gradientTransform="matrix(1,-3.2e-3,3.2e-3,1,-0.1491,0.1264)">
		<stop
   id="stop6155"
   style="stop-color:#ffffff;stop-opacity:1"
   offset="0" />
		<stop
   id="stop6157"
   style="stop-color:#616161;stop-opacity:1"
   offset="1" />
	</radialGradient>
	<path
   d="M 34.195,123.002 L 4.363,93.363 C 11.54,85.129 15.438,74.706 15.405,63.697 C 15.369,52.69 11.402,42.292 4.174,34.105 L 33.816,4.277 C 65.062,37.517 65.227,89.564 34.195,123.002 L 34.195,123.002 z"
   id="path6159"
   style="fill:url(#SVGID_2_)" />
</g>
<path
   d="M 8.329,94.76 C 8.329,94.76 20.704,99.448 32.385,98.484 C 44.072,97.531 52.183,89.251 52.183,89.251 C 52.183,89.251 40.632,118.842 33.18,117.552 C 27.731,116.608 8.329,94.76 8.329,94.76 z"
   id="path6161"
   style="opacity:0.8;fill:url(#linearGradient6506);fill-opacity:1" />
<path
   d="M 42.089,15.184 C 43.275,16.209 43.421,19.083 42.089,19.942 L 14.993,37.951 C 13.902,39.069 11.223,39.555 9.865,38.732 L 6.577,36.257 C 5.163,35.519 4.838,33.955 5.856,32.781 L 29.813,8.839 C 34.863,4.368 34.296,5.572 37.484,8.839 L 42.089,15.184 z"
   id="path6163"
   style="opacity:0.8;fill:url(#linearGradient6498);fill-opacity:1" />
<g
   transform="translate(-101.7021,-15.1986)"
   id="g4276">
				<g
   id="g4278">
					<path
   d="M 138.3853,85.8242 C 138.0835,85.7539 137.8345,85.5498 137.7066,85.2715 L 137.7066,85.2715 L 132.9332,75.021 L 129.4908,81.3418 C 129.315,81.6641 128.981,81.8633 128.6129,81.8633 L 128.6129,81.8633 L 121.1061,81.8633 C 120.5514,81.8633 120.1051,81.4141 120.1051,80.8623 L 120.1051,80.8623 C 120.1051,80.3105 120.5514,79.8623 121.1061,79.8623 L 121.1061,79.8623 L 128.0182,79.8623 L 132.1266,72.3232 C 132.3053,71.9912 132.6598,71.79 133.0358,71.8027 L 133.0358,71.8027 C 133.4128,71.813 133.7516,72.0371 133.9108,72.3794 L 133.9108,72.3794 L 138.9831,83.2754 L 142.9899,80.0801 C 143.1657,79.9395 143.3864,79.8623 143.6139,79.8623 L 143.6139,79.8623 L 154.0104,79.8623 C 154.5622,79.8623 155.0104,80.3105 155.0104,80.8623 L 155.0104,80.8623 C 155.0104,81.4141 154.5622,81.8633 154.0104,81.8633 L 154.0104,81.8633 L 143.9625,81.8633 L 139.2359,85.6328 C 139.0582,85.7754 138.8384,85.8506 138.6148,85.8506 L 138.6148,85.8506 C 138.5376,85.8506 138.4614,85.8418 138.3853,85.8242 L 138.3853,85.8242 z"
   id="path4280"
   style="fill:#666666" />
				</g>
				<g
   id="g4282">
					<path
   d="M 139.3833,86.8232 C 139.0845,86.7519 138.8354,86.5507 138.7065,86.2734 L 138.7065,86.2734 L 133.9331,76.0214 L 130.4897,82.3398 C 130.3159,82.6621 129.9799,82.8632 129.6127,82.8632 L 129.6127,82.8632 L 122.1039,82.8632 C 121.5512,82.8632 121.1049,82.415 121.1049,81.8632 L 121.1049,81.8632 C 121.1049,81.3105 121.5512,80.8632 122.1039,80.8632 L 122.1039,80.8632 L 129.017,80.8632 L 133.1254,73.3227 C 133.3061,72.9907 133.6596,72.7895 134.0365,72.8022 L 134.0365,72.8022 C 134.4125,72.8144 134.7533,73.0385 134.9105,73.3789 L 134.9105,73.3789 L 139.9828,84.2744 L 143.9877,81.0801 C 144.1664,80.9395 144.3861,80.8633 144.6127,80.8633 L 144.6127,80.8633 L 155.0102,80.8633 C 155.562,80.8633 156.0102,81.3106 156.0102,81.8633 L 156.0102,81.8633 C 156.0102,82.4151 155.562,82.8633 155.0102,82.8633 L 155.0102,82.8633 L 144.9614,82.8633 L 140.2358,86.6328 C 140.0561,86.7744 139.8364,86.8496 139.6128,86.8496 L 139.6128,86.8496 C 139.5366,86.8496 139.4595,86.8408 139.3833,86.8232 L 139.3833,86.8232 z"
   id="path4284"
   style="fill:#ffffff" />
				</g>
			</g></svg>