<?xml version="1.0" encoding="UTF-8" standalone="no"?>
<!DOCTYPE svg PUBLIC "-//W3C//DTD SVG 1.1//EN"
 "http://www.w3.org/Graphics/SVG/1.1/DTD/svg11.dtd">
<!-- Generated by graphviz version 2.28.0 (20130127.0148)
 -->
<!-- Title: state_machine_klo Pages: 1 -->
<svg width="233pt" height="360pt"
 viewBox="0.00 0.00 232.90 360.00" xmlns="http://www.w3.org/2000/svg" xmlns:xlink="http://www.w3.org/1999/xlink">
<g id="graph1" class="graph" transform="scale(0.687023 0.687023) rotate(0) translate(4 520)">
<title>state_machine_klo</title>
<polygon fill="white" stroke="white" points="-4,5 -4,-520 336,-520 336,5 -4,5"/>
<!-- Start -->
<g id="PV.Start" class="node"><title>Start</title>
<ellipse fill="grey" stroke="black" cx="234" cy="-488" rx="26.949" ry="27.0966"/>
<text text-anchor="middle" x="234" y="-484.3" font-family="Times,serif" font-size="14.00">Start</text>
</g>
<!-- Spülen -->
<g id="PV.Spülen" class="node"><title>Spülen</title>
<ellipse fill="grey" stroke="black" cx="165" cy="-372" rx="35.6194" ry="35.9954"/>
<text text-anchor="middle" x="165" y="-368.3" font-family="Times,serif" font-size="14.00">Spülen</text>
</g>
<!-- Start&#45;&gt;Spülen -->
<g id="PV.Start2Spülen" class="edge"><title>Start&#45;&gt;Spülen</title>
<path fill="none" stroke="black" d="M212.475,-470.492C203.532,-462.689 193.698,-452.734 187,-442 182.212,-434.327 178.378,-425.519 175.34,-416.819"/>
<polygon fill="black" stroke="black" points="178.615,-415.57 172.239,-407.108 171.947,-417.699 178.615,-415.57"/>
<text text-anchor="middle" x="233" y="-430.3" font-family="Times,serif" font-size="14.00">Spülung betätigt</text>
</g>
<!-- Leer -->
<g id="PV.Leer" class="node"><title>Leer</title>
<ellipse fill="grey" stroke="black" cx="27" cy="-256" rx="27.4223" ry="27.8951"/>
<text text-anchor="middle" x="27" y="-252.3" font-family="Times,serif" font-size="14.00">Leer</text>
</g>
<!-- Spülen&#45;&gt;Leer -->
<g id="PV.Spülen2Leer" class="edge"><title>Spülen&#45;&gt;Leer</title>
<path fill="none" stroke="black" d="M129.854,-367.444C98.4313,-362.239 53.9133,-349.438 31,-318 25.9782,-311.11 23.7142,-302.537 22.9718,-294.016"/>
<polygon fill="black" stroke="black" points="26.4652,-293.682 22.7378,-283.765 19.4671,-293.842 26.4652,-293.682"/>
<text text-anchor="middle" x="91" y="-306.3" font-family="Times,serif" font-size="14.00">Schwimmer ist unten</text>
</g>
<!-- Füllen -->
<g id="PV.Füllen" class="node"><title>Füllen</title>
<ellipse fill="grey" stroke="black" cx="161" cy="-141" rx="34.1708" ry="34.394"/>
<text text-anchor="middle" x="161" y="-137.3" font-family="Times,serif" font-size="14.00">Füllen</text>
</g>
<!-- Leer&#45;&gt;Füllen -->
<g id="PV.Leer2Füllen" class="edge"><title>Leer&#45;&gt;Füllen</title>
<path fill="none" stroke="black" d="M20.7049,-228.711C19.4341,-217.148 20.18,-203.962 27,-194 47.0106,-164.77 86.0309,-151.968 116.826,-146.362"/>
<polygon fill="black" stroke="black" points="117.606,-149.781 126.915,-144.724 116.483,-142.872 117.606,-149.781"/>
<text text-anchor="middle" x="89" y="-198.3" font-family="Times,serif" font-size="14.00">Spülung nicht betätigt</text>
</g>
<!-- Füllen&#45;&gt;Spülen -->
<g id="PV.Füllen2Spülen" class="edge"><title>Füllen&#45;&gt;Spülen</title>
<path fill="none" stroke="black" d="M161.587,-175.613C162.282,-215.41 163.443,-281.853 164.215,-326.045"/>
<polygon fill="black" stroke="black" points="160.718,-326.283 164.392,-336.22 167.717,-326.16 160.718,-326.283"/>
<text text-anchor="middle" x="210" y="-252.3" font-family="Times,serif" font-size="14.00">Spülung betätigt</text>
</g>
<!-- Voll -->
<g id="PV.Voll" class="node"><title>Voll</title>
<ellipse fill="grey" stroke="black" cx="227" cy="-27" rx="26.4705" ry="26.7961"/>
<text text-anchor="middle" x="227" y="-23.3" font-family="Times,serif" font-size="14.00">Voll</text>
</g>
<!-- Füllen&#45;&gt;Voll -->
<g id="PV.Füllen2Voll" class="edge"><title>Füllen&#45;&gt;Voll</title>
<path fill="none" stroke="black" d="M155.423,-106.941C154.982,-95.2901 156.333,-82.4923 162,-72 168.915,-59.1969 181.37,-49.4192 193.541,-42.3706"/>
<polygon fill="black" stroke="black" points="195.506,-45.2897 202.696,-37.5075 192.223,-39.1078 195.506,-45.2897"/>
<text text-anchor="middle" x="220.5" y="-76.3" font-family="Times,serif" font-size="14.00">Schwimmer ist oben</text>
</g>
<!-- Voll&#45;&gt;Start -->
<g id="PV.Voll2Start" class="edge"><title>Voll&#45;&gt;Start</title>
<path fill="none" stroke="black" d="M249.3,-41.7282C259.877,-49.3669 271.755,-59.7975 279,-72 294.753,-98.5321 293,-109.144 293,-140 293,-373 293,-373 293,-373 293,-404.292 293.804,-414.432 279,-442 274.792,-449.836 268.781,-457.193 262.517,-463.598"/>
<polygon fill="black" stroke="black" points="259.949,-461.211 255.14,-470.652 264.787,-466.271 259.949,-461.211"/>
<text text-anchor="middle" x="312" y="-252.3" font-family="Times,serif" font-size="14.00">immer</text>
</g>
</g>
</svg>
