<?xml version="1.0" encoding="UTF-8" standalone="no"?>
<!DOCTYPE svg PUBLIC "-//W3C//DTD SVG 1.1//EN"
 "http://www.w3.org/Graphics/SVG/1.1/DTD/svg11.dtd">
<!-- Generated by graphviz version 2.28.0 (20130127.0148)
 -->
<!-- Title: state_machine_klo Pages: 1 -->
<svg width="211pt" height="360pt"
 viewBox="0.00 0.00 211.42 360.00" xmlns="http://www.w3.org/2000/svg" xmlns:xlink="http://www.w3.org/1999/xlink">
<g id="graph1" class="graph" transform="scale(0.654545 0.654545) rotate(0) translate(4 546)">
<title>state_machine_klo</title>
<polygon fill="white" stroke="white" points="-4,5 -4,-546 320,-546 320,5 -4,5"/>
<!-- Start -->
<g id="PV.Start" class="node"><title>Start</title>
<ellipse fill="grey" stroke="black" cx="221" cy="-514" rx="26.949" ry="27.0966"/>
<text text-anchor="middle" x="221" y="-510.3" font-family="Times,serif" font-size="14.00">Start</text>
</g>
<!-- Flushing -->
<g id="PV.Spülen" class="node"><title>Flushing</title>
<ellipse fill="grey" stroke="black" cx="155" cy="-392" rx="42.3701" ry="42.4939"/>
<text text-anchor="middle" x="155" y="-388.3" font-family="Times,serif" font-size="14.00">Flushing</text>
</g>
<!-- Start&#45;&gt;Flushing -->
<g id="PV.Start2Spülen" class="edge"><title>Start&#45;&gt;Flushing</title>
<path fill="none" stroke="black" d="M200.316,-495.906C192.051,-488.139 183.073,-478.372 177,-468 172.566,-460.428 168.968,-451.896 166.068,-443.372"/>
<polygon fill="black" stroke="black" points="169.401,-442.307 163.081,-433.804 162.719,-444.392 169.401,-442.307"/>
<text text-anchor="middle" x="219.5" y="-456.3" font-family="Times,serif" font-size="14.00">Flush operated</text>
</g>
<!-- Empty -->
<g id="PV.Leer" class="node"><title>Empty</title>
<ellipse fill="grey" stroke="black" cx="35" cy="-262" rx="35.6194" ry="35.9954"/>
<text text-anchor="middle" x="35" y="-258.3" font-family="Times,serif" font-size="14.00">Empty</text>
</g>
<!-- Flushing&#45;&gt;Empty -->
<g id="PV.Spülen2Leer" class="edge"><title>Flushing&#45;&gt;Empty</title>
<path fill="none" stroke="black" d="M113.912,-381.667C87.4673,-373.344 54.9742,-358.274 38,-332 33.3233,-324.761 31.0362,-316.148 30.1656,-307.503"/>
<polygon fill="black" stroke="black" points="33.6586,-307.262 29.7358,-297.42 26.6649,-307.56 33.6586,-307.262"/>
<text text-anchor="middle" x="89.5" y="-320.3" font-family="Times,serif" font-size="14.00">Floater on bottom</text>
</g>
<!-- Filling -->
<g id="PV.Füllen" class="node"><title>Filling</title>
<ellipse fill="grey" stroke="black" cx="155" cy="-139" rx="35.1455" ry="35.194"/>
<text text-anchor="middle" x="155" y="-135.3" font-family="Times,serif" font-size="14.00">Filling</text>
</g>
<!-- Empty&#45;&gt;Filling -->
<g id="PV.Leer2Füllen" class="edge"><title>Empty&#45;&gt;Filling</title>
<path fill="none" stroke="black" d="M27.6974,-226.869C26.9593,-214.988 28.3599,-202.114 35,-192 51.6293,-166.671 83.5307,-153.618 110.263,-146.927"/>
<polygon fill="black" stroke="black" points="111.239,-150.294 120.212,-144.661 109.685,-143.469 111.239,-150.294"/>
<text text-anchor="middle" x="88" y="-196.3" font-family="Times,serif" font-size="14.00">Flush not operated</text>
</g>
<!-- Filling&#45;&gt;Flushing -->
<g id="PV.Füllen2Spülen" class="edge"><title>Filling&#45;&gt;Flushing</title>
<path fill="none" stroke="black" d="M155,-174.243C155,-216.843 155,-289.981 155,-339.389"/>
<polygon fill="black" stroke="black" points="151.5,-339.552 155,-349.552 158.5,-339.552 151.5,-339.552"/>
<text text-anchor="middle" x="197.5" y="-258.3" font-family="Times,serif" font-size="14.00">Flush operated</text>
</g>
<!-- Full -->
<g id="PV.Voll" class="node"><title>Full</title>
<ellipse fill="grey" stroke="black" cx="222" cy="-26" rx="25.0236" ry="25.1964"/>
<text text-anchor="middle" x="222" y="-22.3" font-family="Times,serif" font-size="14.00">Full</text>
</g>
<!-- Filling&#45;&gt;Full -->
<g id="PV.Füllen2Voll" class="edge"><title>Filling&#45;&gt;Full</title>
<path fill="none" stroke="black" d="M164.678,-104.926C168.806,-93.3991 174.25,-80.6857 181,-70 185.338,-63.1325 190.887,-56.4211 196.491,-50.4196"/>
<polygon fill="black" stroke="black" points="199.03,-52.8296 203.533,-43.2391 194.032,-47.9284 199.03,-52.8296"/>
<text text-anchor="middle" x="221.5" y="-74.3" font-family="Times,serif" font-size="14.00">Floater on top</text>
</g>
<!-- Full&#45;&gt;Start -->
<g id="PV.Voll2Start" class="edge"><title>Full&#45;&gt;Start</title>
<path fill="none" stroke="black" d="M241.175,-43.2789C248.751,-50.6912 256.859,-60.0321 262,-70 276.143,-97.4238 276,-107.144 276,-138 276,-393 276,-393 276,-393 276,-426.909 277.106,-437.642 262,-468 258.425,-475.185 253.363,-482.067 248.011,-488.194"/>
<polygon fill="black" stroke="black" points="245.438,-485.82 241.167,-495.516 250.552,-490.6 245.438,-485.82"/>
<text text-anchor="middle" x="295.5" y="-258.3" font-family="Times,serif" font-size="14.00">always</text>
</g>
</g>
</svg>
