<?xml version="1.0" encoding="UTF-8" standalone="no"?>
<!-- Created with Inkscape (http://www.inkscape.org/) -->
<svg
   xmlns:dc="http://purl.org/dc/elements/1.1/"
   xmlns:cc="http://web.resource.org/cc/"
   xmlns:rdf="http://www.w3.org/1999/02/22-rdf-syntax-ns#"
   xmlns:svg="http://www.w3.org/2000/svg"
   xmlns="http://www.w3.org/2000/svg"
   xmlns:sodipodi="http://sodipodi.sourceforge.net/DTD/sodipodi-0.dtd"
   xmlns:inkscape="http://www.inkscape.org/namespaces/inkscape"
   width="210mm"
   height="297mm"
   id="svg2"
   sodipodi:version="0.32"
   inkscape:version="0.44.1"
   sodipodi:docbase="/home/lehrig/cc/priv/cvs/demos/svgdemo"
   sodipodi:docname="startscreen.svg">
  <defs
     id="defs4" />
  <sodipodi:namedview
     id="base"
     pagecolor="#ffffff"
     bordercolor="#666666"
     borderopacity="1.0"
     inkscape:pageopacity="0.0"
     inkscape:pageshadow="2"
     inkscape:zoom="0.56807095"
     inkscape:cx="729.26222"
     inkscape:cy="835.3835"
     inkscape:document-units="px"
     inkscape:current-layer="layer1"
     inkscape:window-width="1280"
     inkscape:window-height="732"
     inkscape:window-x="0"
     inkscape:window-y="0" />
  <metadata
     id="metadata7">
    <rdf:RDF>
      <cc:Work
         rdf:about="">
        <dc:format>image/svg+xml</dc:format>
        <dc:type
           rdf:resource="http://purl.org/dc/dcmitype/StillImage" />
      </cc:Work>
    </rdf:RDF>
  </metadata>
  <g
     inkscape:label="Ebene 1"
     inkscape:groupmode="layer"
     id="layer1">
    <text
       xml:space="preserve"
       style="font-size:20px;font-style:normal;font-variant:normal;font-weight:normal;font-stretch:normal;text-align:start;line-height:125%;writing-mode:lr-tb;text-anchor:start;fill:black;fill-opacity:1;stroke:none;stroke-width:1pt;stroke-linecap:butt;stroke-linejoin:miter;stroke-opacity:1;font-family:Sans"
       x="29.925835"
       y="41.925014"
       id="text1876"
       sodipodi:linespacing="125%"><tspan
         sodipodi:role="line"
         id="tspan1878"
         x="29.925835"
         y="41.925014">There is a SVG demo on the next page.</tspan><tspan
         sodipodi:role="line"
         x="29.925835"
         y="66.925014"
         id="tspan1880" /></text>
    <path
       style="fill:red;fill-opacity:1;fill-rule:nonzero;stroke:none;stroke-width:1pt;stroke-linecap:butt;stroke-linejoin:miter;stroke-opacity:1"
       id="path1882"
       d="M 29.54257,150.7276 C 29.924797,150.04122 30.272981,149.28557 30.637894,148.56513 C 32.029974,145.9265 33.617724,143.7633 35.151574,141.4779 C 42.566084,131.609 50.265184,122.50401 58.465144,115.52555 C 62.213474,112.54904 66.175274,111.06721 70.119754,109.56649 C 73.918474,108.21082 77.767584,107.79934 81.614564,107.47129 C 84.762324,106.93811 87.780484,108.13876 90.807594,109.61802 C 94.064544,111.51004 97.009174,114.91359 99.987484,118.05383 C 104.07915,122.44046 108.09073,127.11252 112.11641,131.73131 C 115.75343,135.96549 119.39043,140.19789 123.0039,144.51067 C 125.69847,147.68363 128.2518,151.26561 130.75529,154.99155 C 132.37761,157.74324 134.08484,160.26448 135.79829,162.7752 C 137.08135,164.64349 138.61404,165.33907 140.07695,166.37942 C 142.29225,167.72148 144.47246,169.31434 146.66552,170.80327 C 150.75334,173.79092 154.8459,176.75065 158.94778,179.66087 C 164.23453,183.45426 169.70392,186.01835 175.19728,188.29645 C 181.77439,190.9288 188.4279,192.6733 195.10999,193.79965 C 200.51127,194.84612 205.91583,194.45129 211.31316,193.73005 C 214.83406,193.30637 218.13203,191.17547 221.40478,188.77137 C 233.99373,174.89188 203.90272,211.15941 213.69961,197.13648 C 215.82737,193.80597 217.72537,189.95857 219.66594,186.21912 C 221.83814,181.57418 224.31753,177.59778 226.77508,173.58026 C 230.52001,167.78396 234.45712,162.5065 238.37577,157.19168 C 246.88898,145.67908 256.04979,136.2044 264.99242,126.13878 C 268.83802,122.38633 272.81953,119.27256 276.82211,116.26343 C 280.10062,113.73808 283.51519,112.2558 286.95812,110.9875 C 290.41699,110.13528 293.67875,111.83966 296.9601,113.70216 C 300.33121,115.88387 303.12698,119.99433 305.90118,124.20087 C 309.2224,129.87982 312.29195,136.09991 315.37952,142.26659 C 318.73952,148.96214 321.87222,156.08013 325.04265,163.12392 C 328.69839,171.02469 332.67803,178.29245 336.6839,185.47906 L 322.38587,203.07671 C 318.33159,195.80171 314.29847,188.46884 310.49027,180.68077 C 307.2337,173.82785 304.13397,166.68506 300.78203,160.01037 C 297.71638,153.96062 294.6721,147.83738 291.30044,142.44683 C 288.61458,138.6297 285.92223,134.86223 282.68945,133.06233 C 279.52163,131.59893 276.39487,130.32355 273.13433,131.69846 C 269.78962,133.1457 266.47044,134.78394 263.28057,137.31221 C 259.33241,140.40096 255.39403,143.55679 251.62143,147.44035 C 250.97046,148.12692 250.31948,148.81349 249.66851,149.50005 C 253.89719,144.62631 258.12586,139.75256 262.35453,134.87882 C 265.09611,131.71849 251.35595,147.29859 254.27239,144.83161 C 250.38336,150.03412 246.49301,155.23999 242.75316,160.86411 C 240.33449,164.73021 237.85594,168.49467 235.72813,173.01279 C 233.78326,176.83329 231.86494,180.71289 229.81013,184.30498 C 223.16127,194.93175 215.61642,203.43099 207.75219,209.96834 C 204.40941,212.00727 201.04239,213.72616 197.51683,213.92877 C 192.1311,214.31063 186.74281,214.40262 181.37236,213.23979 C 174.6565,211.91681 167.96706,210.07335 161.34862,207.42431 C 155.75229,205.10279 150.16554,202.5777 144.78422,198.67819 C 140.65216,195.77484 136.53422,192.78204 132.36209,190.11122 C 130.10799,188.7117 127.8578,187.28705 125.59372,185.95261 C 124.03475,184.60488 122.38571,183.62446 121.04309,181.42486 C 119.36306,178.79016 117.68982,176.14134 116.05545,173.39102 C 113.61951,169.74134 111.13581,166.22761 108.52489,163.07797 C 104.95866,158.72779 101.37485,154.43556 97.765654,150.22684 C 93.750644,145.61575 89.746984,140.95464 85.616024,136.75889 C 82.663814,133.87054 79.733914,130.76618 76.519204,129.16736 C 73.594784,128.024 70.678004,127.22708 67.680364,127.7334 C 63.904654,128.14861 60.126874,128.64833 56.409774,130.13213 C 52.506694,131.80578 48.589794,133.48365 44.929004,136.77323 C 30.38865,150.57543 61.850004,117.0919 51.338664,128.86108 C 49.843864,130.94739 48.296294,132.89094 46.938914,135.34329 C 46.600344,135.97789 46.210604,136.52225 45.916844,137.25904 L 29.54257,150.7276 z " />
    <text
       xml:space="preserve"
       style="font-size:12px;font-style:normal;font-weight:normal;fill:black;fill-opacity:1;stroke:none;stroke-width:1pt;stroke-linecap:butt;stroke-linejoin:miter;stroke-opacity:1;font-family:Bitstream Vera Sans"
       x="35.206871"
       y="68.33017"
       id="text1873"><tspan
         sodipodi:role="line"
         id="tspan1875"
         x="35.206871"
         y="68.33017">You can move/zoom and cut the SVG.</tspan></text>
  </g>
</svg>
