<?xml version="1.0" encoding="UTF-8" standalone="no"?>
<!-- Generator: Adobe Illustrator 13.0.2, SVG Export Plug-In  -->
<svg
   xmlns:dc="http://purl.org/dc/elements/1.1/"
   xmlns:cc="http://web.resource.org/cc/"
   xmlns:rdf="http://www.w3.org/1999/02/22-rdf-syntax-ns#"
   xmlns:svg="http://www.w3.org/2000/svg"
   xmlns="http://www.w3.org/2000/svg"
   xmlns:sodipodi="http://sodipodi.sourceforge.net/DTD/sodipodi-0.dtd"
   xmlns:inkscape="http://www.inkscape.org/namespaces/inkscape"
   version="1.1"
   x="0px"
   y="0px"
   width="226px"
   height="176px"
   viewBox="-10 -9 226 176"
   enable-background="new -10 -9 226 176"
   xml:space="preserve"
   id="svg2"
   sodipodi:version="0.32"
   inkscape:version="0.45.1"
   sodipodi:docname="background.svg"
   sodipodi:docbase="/basyskom/users/dhau/projects/embeddedstories/skins/svgdialgauge/Amperemeter"
   inkscape:output_extension="org.inkscape.output.svg.inkscape"><metadata
   id="metadata72"><rdf:RDF><cc:Work
       rdf:about=""><dc:format>image/svg+xml</dc:format><dc:type
         rdf:resource="http://purl.org/dc/dcmitype/StillImage" /></cc:Work></rdf:RDF></metadata><sodipodi:namedview
   inkscape:window-height="669"
   inkscape:window-width="792"
   inkscape:pageshadow="2"
   inkscape:pageopacity="0.0"
   guidetolerance="10.0"
   gridtolerance="10.0"
   objecttolerance="10.0"
   borderopacity="1.0"
   bordercolor="#666666"
   pagecolor="#ffffff"
   id="base"
   inkscape:zoom="2.6306818"
   inkscape:cx="113"
   inkscape:cy="88"
   inkscape:window-x="0"
   inkscape:window-y="0"
   inkscape:current-layer="svg2" />
<defs
   id="defs4">
</defs>
<linearGradient
   id="SVGID_1_"
   gradientUnits="userSpaceOnUse"
   x1="-4.5005"
   y1="-75.9995"
   x2="-4.5005"
   y2="36"
   gradientTransform="matrix(1,0,0,-1,107.5,36)">
	<stop
   offset="0.1264"
   style="stop-color:#ADADAD"
   id="stop7" />
	<stop
   offset="0.5439"
   style="stop-color:#D9D9D9"
   id="stop9" />
	<stop
   offset="0.7857"
   style="stop-color:#EDEDED"
   id="stop11" />
	<stop
   offset="0.8584"
   style="stop-color:#EBEBEB"
   id="stop13" />
	<stop
   offset="0.8846"
   style="stop-color:#E4E4E4"
   id="stop15" />
	<stop
   offset="0.9033"
   style="stop-color:#D9D9D9"
   id="stop17" />
	<stop
   offset="0.9184"
   style="stop-color:#C8C8C8"
   id="stop19" />
	<stop
   offset="0.9314"
   style="stop-color:#B2B2B2"
   id="stop21" />
	<stop
   offset="0.9428"
   style="stop-color:#969696"
   id="stop23" />
	<stop
   offset="0.9532"
   style="stop-color:#767676"
   id="stop25" />
	<stop
   offset="0.9627"
   style="stop-color:#505050"
   id="stop27" />
	<stop
   offset="0.9712"
   style="stop-color:#272727"
   id="stop29" />
	<stop
   offset="0.978"
   style="stop-color:#000000"
   id="stop31" />
</linearGradient>
<rect
   width="196"
   height="112"
   id="rect33"
   style="fill:url(#SVGID_1_)"
   x="5"
   y="0" />
<path
   d="M 124.734,59.962 L 133.634,30.31 C 129.113,29.004 124.476,27.971 119.742,27.231 L 115.285,57.894 C 118.501,58.408 121.658,59.087 124.734,59.962 z "
   id="path35"
   style="fill:#fdff00" />
<path
   d="M 112.948,57.531 L 117.4,26.895 C 112.752,26.268 108.015,25.925 103.211,25.881 L 103.245,56.857 C 106.528,56.9 109.771,57.116 112.948,57.531 z "
   id="path37"
   style="fill:#fdff00" />
<path
   d="M 88.818,57.916 L 84.321,27.269 C 79.582,28.016 74.943,29.055 70.423,30.366 L 79.36,60.009 C 82.439,59.128 85.597,58.436 88.818,57.916 z "
   id="path39"
   style="fill:#5dbf00" />
<path
   d="M 100.238,56.849 C 100.453,56.844 100.664,56.854 100.879,56.851 L 100.843,25.885 C 100.405,25.89 99.971,25.888 99.534,25.898 C 95.176,25.998 90.883,26.351 86.663,26.926 L 91.159,57.564 C 94.136,57.17 97.162,56.92 100.238,56.849 z "
   id="path41"
   style="fill:#5dbf00" />
<path
   d="M 156.312,77.123 L 176.984,54.08 C 173.42,50.95 169.661,48.035 165.724,45.366 L 148.609,71.19 C 151.289,73.023 153.868,74.993 156.312,77.123 z "
   id="path43"
   style="fill:#ff003b" />
<path
   d="M 136.047,64.102 L 149.199,36.076 C 144.9,34.113 140.463,32.41 135.904,30.99 L 126.996,60.663 C 130.092,61.641 133.118,62.779 136.047,64.102 z "
   id="path45"
   style="fill:#ff9200" />
<path
   d="M 146.648,69.864 L 163.749,44.06 C 159.775,41.486 155.634,39.15 151.342,37.081 L 138.182,65.127 C 141.1,66.548 143.934,68.117 146.648,69.864 z "
   id="path47"
   style="fill:#ff9200" />
<path
   d="M 77.097,60.705 L 68.155,31.047 C 63.596,32.474 59.164,34.182 54.876,36.147 L 68.068,64.151 C 70.987,62.828 74.005,61.687 77.097,60.705 z "
   id="path49"
   style="fill:#5dbf00" />
<path
   d="M 65.933,65.176 L 52.733,37.154 C 48.442,39.23 44.305,41.571 40.339,44.149 L 57.48,69.928 C 60.19,68.18 63.017,66.602 65.933,65.176 z "
   id="path51"
   style="fill:#5dbf00" />
<path
   d="M 55.517,71.25 L 38.367,45.458 C 34.428,48.137 30.67,51.059 27.109,54.198 L 47.823,77.208 C 50.265,75.072 52.837,73.089 55.517,71.25 z "
   id="path53"
   style="fill:#5dbf00" />
<text
   font-size="21"
   letter-spacing="3"
   id="text55"
   x="94.499496"
   y="85.848602"
   style="font-size:21px;letter-spacing:3;font-family:MyriadPro-Bold">%</text>

<path
   d="M 29.69,46.142 C 29.393,46.641 28.764,47.575 27.78,48.384 C 26.676,49.291 25.536,49.757 24.262,49.662 C 23.137,49.572 21.947,48.919 21.012,47.783 C 19.235,45.599 19.42,42.782 21.865,40.771 C 22.709,40.077 23.52,39.718 23.958,39.612 L 24.362,40.567 C 23.83,40.714 23.228,40.973 22.492,41.579 C 20.718,43.038 20.468,45.093 21.971,46.922 C 23.492,48.772 25.505,48.948 27.203,47.551 C 27.82,47.044 28.171,46.611 28.298,46.324 L 26.51,44.15 L 25.028,45.369 L 24.405,44.611 L 26.807,42.636 L 29.69,46.142 z "
   id="path57" />
<path
   d="M 37.739,35.234 C 39.534,37.939 38.842,40.463 36.837,41.795 C 34.762,43.172 32.237,42.53 30.659,40.152 C 29.004,37.657 29.471,34.996 31.569,33.603 C 33.714,32.18 36.192,32.903 37.739,35.234 z M 31.728,39.409 C 32.842,41.088 34.749,41.988 36.346,40.929 C 37.955,39.861 37.882,37.777 36.698,35.993 C 35.661,34.431 33.762,33.341 32.072,34.462 C 30.393,35.576 30.583,37.684 31.728,39.409 z "
   id="path59" />
<path
   d="M 49.122,29.037 C 50.623,31.919 49.667,34.359 47.531,35.472 C 45.32,36.623 42.875,35.718 41.555,33.185 C 40.171,30.527 40.917,27.927 43.152,26.763 C 45.438,25.572 47.828,26.553 49.122,29.037 z M 42.697,32.558 C 43.629,34.347 45.432,35.444 47.134,34.558 C 48.848,33.665 48.995,31.583 48.006,29.683 C 47.139,28.018 45.364,26.732 43.563,27.67 C 41.773,28.602 41.74,30.72 42.697,32.558 z "
   id="path61" />
<path
   d="M 51.945,22.858 C 52.593,22.481 53.383,22.079 54.281,21.724 C 55.908,21.081 57.215,21.001 58.266,21.413 C 59.33,21.82 60.186,22.655 60.747,24.074 C 61.313,25.506 61.333,26.852 60.832,27.983 C 60.336,29.127 59.157,30.104 57.452,30.778 C 56.645,31.096 55.952,31.325 55.354,31.486 L 51.945,22.858 z M 56.142,30.168 C 56.449,30.107 56.871,29.955 57.313,29.78 C 59.734,28.824 60.514,26.951 59.578,24.582 C 58.773,22.508 57.083,21.656 54.688,22.602 C 54.102,22.833 53.68,23.061 53.407,23.245 L 56.142,30.168 z "
   id="path63" />
<path
   d="M 160.848,27.046 C 161.369,27.204 162.143,27.535 162.893,27.946 C 163.959,28.533 164.545,29.094 164.831,29.795 C 165.086,30.351 165.073,30.983 164.716,31.633 C 164.278,32.43 163.366,32.84 162.32,32.68 L 162.306,32.704 C 162.984,33.332 163.546,34.488 162.872,35.715 C 162.479,36.427 161.901,36.812 161.262,36.986 C 160.396,37.197 159.327,36.929 157.98,36.188 C 157.244,35.783 156.707,35.423 156.376,35.179 L 160.848,27.046 z M 157.874,34.981 C 158.062,35.132 158.361,35.313 158.742,35.522 C 159.846,36.129 161.088,36.284 161.748,35.082 C 162.369,33.953 161.656,32.954 160.49,32.313 L 159.607,31.828 L 157.874,34.981 z M 160.053,31.019 L 161.022,31.551 C 162.151,32.172 163.137,31.947 163.576,31.15 C 164.108,30.181 163.582,29.396 162.503,28.802 C 162.012,28.532 161.71,28.414 161.519,28.357 L 160.053,31.019 z "
   id="path65" />
<path
   d="M 168.309,38.793 L 165.834,40.703 L 164.791,39.997 L 172.732,33.976 L 173.949,34.799 L 171.331,44.419 L 170.252,43.69 L 171.08,40.667 L 168.309,38.793 z M 171.404,39.738 L 172.161,36.97 C 172.332,36.342 172.529,35.8 172.721,35.269 L 172.699,35.253 C 172.268,35.639 171.819,36.027 171.346,36.401 L 169.051,38.144 L 171.404,39.738 z "
   id="path67" />
<path
   d="M 180.625,39.802 C 181.266,40.191 181.998,40.69 182.74,41.308 C 184.084,42.428 184.782,43.537 184.924,44.657 C 185.077,45.787 184.755,46.939 183.779,48.112 C 182.793,49.295 181.621,49.959 180.388,50.061 C 179.146,50.174 177.722,49.609 176.314,48.435 C 175.646,47.88 175.115,47.382 174.685,46.934 L 180.625,39.802 z M 176.223,46.992 C 176.423,47.232 176.758,47.529 177.124,47.834 C 179.125,49.5 181.143,49.286 182.773,47.328 C 184.208,45.627 184.144,43.734 182.165,42.086 C 181.682,41.683 181.279,41.422 180.986,41.27 L 176.223,46.992 z "
   id="path69" />
</svg>