<?xml version="1.0" encoding="UTF-8"?>
<!DOCTYPE svg PUBLIC "-//W3C//DTD SVG 1.1//EN" "http://www.w3.org/Graphics/SVG/1.1/DTD/svg11.dtd">

<svg
xmlns="http://www.w3.org/2000/svg"
xmlns:xlink="http://www.w3.org/1999/xlink"
xmlns:ev="http://www.w3.org/2001/xml-events"
version="1.1"
baseProfile="full"
width="800px"
height="1200px"
viewBox="0 0 800 1200"
>
<g
id="idMain"
style="fill-opacity:0.7;"
>
<rect
x="0"
y="0"
width="700"
height="200"
fill="#bbbbbb"
stroke="black"
stroke-width="7px"
rx="10"
ry="10"
/>
<text
id="idMonth"
x="200"
y="110"
style="font-size:46px;fill:#000000"
>
September 2014
</text>
<rect
x="0"
y="200"
width="700"
height="700"
fill="#dddddd"
stroke="black"
stroke-width="7px"
rx="10"
ry="10"
/>
<g
id="idRectNextPreviousClose"
style="font-size:46px;fill:#aaaaaa;stroke:#333333;stroke-width:3px"
>

<rect
id="PV.idPrev"
x="20"
y="50"
width="100"
height="100"
rx="50"
ry="50"
style="opacity:0.0"
/>
<rect
id="PV.idNext"
x="580"
y="50"
width="100"
height="100"
rx="50"
ry="50"
style="opacity:0.0"
/>
<rect
id="PV.idClose"
x="665"
y="0"
width="35"
height="35"
style="opacity:0.0"
/>
<text
id="idPrevText"
x="40"
y="110"
style="stroke-width:7px"
>
❰
</text>
<text
id="idNextText"
x="620"
y="110"
style="stroke-width:7px"
>
❱
</text>
<text
id="idCloseText"
x="668"
y="30"
style="font-size:32px;stroke-width:3px"
>
✖
</text>
</g>

<g
id="idRectWeekdays"
style="fill:#222222;stroke:#333333;stroke-width:3px"
>

<rect
x="0"
y="200"
width="100"
height="100"
rx="5"
ry="5"
/>
<rect
x="100"
y="200"
width="100"
height="100"
rx="5"
ry="5"
/>
<rect
x="200"
y="200"
width="100"
height="100"
rx="5"
ry="5"
/>
<rect
x="300"
y="200"
width="100"
height="100"
rx="5"
ry="5"
/>
<rect
x="400"
y="200"
width="100"
height="100"
rx="5"
ry="5"
/>
<rect
x="500"
y="200"
width="100"
height="100"
rx="5"
ry="5"
/>
<rect
x="600"
y="200"
width="100"
height="100"
rx="5"
ry="5"
/>
</g>
<g
id="idRectDays"
style="fill:#666666;stroke:#333333;stroke-width:3px"
>

<rect
id="PV.a11"
x="0"
y="300"
width="100"
height="100"
rx="5"
ry="5"
/>
<rect
id="PV.a12"
x="100"
y="300"
width="100"
height="100"
rx="5"
ry="5"
/>
<rect
id="PV.a13"
x="200"
y="300"
width="100"
height="100"
rx="5"
ry="5"
/>
<rect
id="PV.a14"
x="300"
y="300"
width="100"
height="100"
rx="5"
ry="5"
/>
<rect
id="PV.a15"
x="400"
y="300"
width="100"
height="100"
rx="5"
ry="5"
/>
<rect
id="PV.a16"
x="500"
y="300"
width="100"
height="100"
rx="5"
ry="5"
/>
<rect
id="PV.a17"
x="600"
y="300"
width="100"
height="100"
rx="5"
ry="5"
/>

<rect
id="PV.a21"
x="0"
y="400"
width="100"
height="100"
rx="5"
ry="5"
/>
<rect
id="PV.a22"
x="100"
y="400"
width="100"
height="100"
rx="5"
ry="5"
/>
<rect
id="PV.a23"
x="200"
y="400"
width="100"
height="100"
rx="5"
ry="5"
/>
<rect
id="PV.a24"
x="300"
y="400"
width="100"
height="100"
rx="5"
ry="5"
/>
<rect
id="PV.a25"
x="400"
y="400"
width="100"
height="100"
rx="5"
ry="5"
/>
<rect
id="PV.a26"
x="500"
y="400"
width="100"
height="100"
rx="5"
ry="5"
/>
<rect
id="PV.a27"
x="600"
y="400"
width="100"
height="100"
rx="5"
ry="5"
/>

<rect
id="PV.a31"
x="0"
y="500"
width="100"
height="100"
rx="5"
ry="5"
/>
<rect
id="PV.a32"
x="100"
y="500"
width="100"
height="100"
rx="5"
ry="5"
/>
<rect
id="PV.a33"
x="200"
y="500"
width="100"
height="100"
rx="5"
ry="5"
/>
<rect
id="PV.a34"
x="300"
y="500"
width="100"
height="100"
rx="5"
ry="5"
/>
<rect
id="PV.a35"
x="400"
y="500"
width="100"
height="100"
rx="5"
ry="5"
/>
<rect
id="PV.a36"
x="500"
y="500"
width="100"
height="100"
rx="5"
ry="5"
/>
<rect
id="PV.a37"
x="600"
y="500"
width="100"
height="100"
rx="5"
ry="5"
/>

<rect
id="PV.a41"
x="0"
y="600"
width="100"
height="100"
rx="5"
ry="5"
/>
<rect
id="PV.a42"
x="100"
y="600"
width="100"
height="100"
rx="5"
ry="5"
/>
<rect
id="PV.a43"
x="200"
y="600"
width="100"
height="100"
rx="5"
ry="5"
/>
<rect
id="PV.a44"
x="300"
y="600"
width="100"
height="100"
rx="5"
ry="5"
/>
<rect
id="PV.a45"
x="400"
y="600"
width="100"
height="100"
rx="5"
ry="5"
/>
<rect
id="PV.a46"
x="500"
y="600"
width="100"
height="100"
rx="5"
ry="5"
/>
<rect
id="PV.a47"
x="600"
y="600"
width="100"
height="100"
rx="5"
ry="5"
/>

<rect
id="PV.a51"
x="0"
y="700"
width="100"
height="100"
rx="5"
ry="5"
/>
<rect
id="PV.a52"
x="100"
y="700"
width="100"
height="100"
rx="5"
ry="5"
/>
<rect
id="PV.a53"
x="200"
y="700"
width="100"
height="100"
rx="5"
ry="5"
/>
<rect
id="PV.a54"
x="300"
y="700"
width="100"
height="100"
rx="5"
ry="5"
/>
<rect
id="PV.a55"
x="400"
y="700"
width="100"
height="100"
rx="5"
ry="5"
/>
<rect
id="PV.a56"
x="500"
y="700"
width="100"
height="100"
rx="5"
ry="5"
/>
<rect
id="PV.a57"
x="600"
y="700"
width="100"
height="100"
rx="5"
ry="5"
/>

<rect
id="PV.a61"
x="0"
y="800"
width="100"
height="100"
rx="5"
ry="5"
/>
<rect
id="PV.a62"
x="100"
y="800"
width="100"
height="100"
rx="5"
ry="5"
/>
<rect
id="PV.a63"
x="200"
y="800"
width="100"
height="100"
rx="5"
ry="5"
/>
<rect
id="PV.a64"
x="300"
y="800"
width="100"
height="100"
rx="5"
ry="5"
/>
<rect
id="PV.a65"
x="400"
y="800"
width="100"
height="100"
rx="5"
ry="5"
/>
<rect
id="PV.a66"
x="500"
y="800"
width="100"
height="100"
rx="5"
ry="5"
/>
<rect
id="PV.a67"
x="600"
y="800"
width="100"
height="100"
rx="5"
ry="5"
/>
</g>
<g
id="idWeekdays"
style="font-size:32px;fill:#00ff00"
>

<text
id="a01"
x="30"
y="260"
>
Mo
</text>
<text
id="a02"
x="130"
y="260"
>
Di
</text>
<text
id="a03"
x="230"
y="260"
>
Mi
</text>
<text
id="a04"
x="330"
y="260"
>
Do
</text>
<text
id="a05"
x="430"
y="260"
>
Fr
</text>
<text
id="a06"
x="530"
y="260"
>
Sa
</text>
<text
id="a07"
x="630"
y="260"
>
So
</text>
</g>

<g
id="idDays"
style="font-size:32px;fill:#000000"
>
<text
id="a11"
x="30"
y="360"
style="fill:#000000"
>
11
</text>
<text
id="a12"
x="130"
y="360"
style="fill:#000000"
>
12
</text>
<text
id="a13"
x="230"
y="360"
style="fill:#000000"
>
13
</text>
<text
id="a14"
x="330"
y="360"
style="fill:#000000"
>
14
</text>
<text
id="a15"
x="430"
y="360"
style="fill:#000000"
>
15
</text>
<text
id="a16"
x="530"
y="360"
style="fill:#000000"
>
16
</text>
<text
id="a17"
x="630"
y="360"
style="fill:#000000"
>
17
</text>

<text
id="a21"
x="30"
y="460"
style="fill:#000000"
>
21
</text>
<text
id="a22"
x="130"
y="460"
style="fill:#000000"
>
22
</text>
<text
id="a23"
x="230"
y="460"
style="fill:#000000"
>
23
</text>
<text
id="a24"
x="330"
y="460"
style="fill:#000000"
>
24
</text>
<text
id="a25"
x="430"
y="460"
style="fill:#000000"
>
25
</text>
<text
id="a26"
x="530"
y="460"
style="fill:#000000"
>
26
</text>
<text
id="a27"
x="630"
y="460"
style="fill:#000000"
>
27
</text>

<text
id="a31"
x="30"
y="560"
style="fill:#000000"
>
31
</text>
<text
id="a32"
x="130"
y="560"
style="fill:#000000"
>
32
</text>
<text
id="a33"
x="230"
y="560"
style="fill:#000000"
>
33
</text>
<text
id="a34"
x="330"
y="560"
style="fill:#000000"
>
34
</text>
<text
id="a35"
x="430"
y="560"
style="fill:#000000"
>
35
</text>
<text
id="a36"
x="530"
y="560"
style="fill:#000000"
>
36
</text>
<text
id="a37"
x="630"
y="560"
style="fill:#000000"
>
37
</text>

<text
id="a41"
x="30"
y="660"
style="fill:#000000"
>
41
</text>
<text
id="a42"
x="130"
y="660"
style="fill:#000000"
>
42
</text>
<text
id="a43"
x="230"
y="660"
style="fill:#000000"
>
43
</text>
<text
id="a44"
x="330"
y="660"
style="fill:#000000"
>
44
</text>
<text
id="a45"
x="430"
y="660"
style="fill:#000000"
>
45
</text>
<text
id="a46"
x="530"
y="660"
style="fill:#000000"
>
46
</text>
<text
id="a47"
x="630"
y="660"
style="fill:#000000"
>
47
</text>

<text
id="a51"
x="30"
y="760"
style="fill:#000000"
>
51
</text>
<text
id="a52"
x="130"
y="760"
style="fill:#000000"
>
52
</text>
<text
id="a53"
x="230"
y="760"
style="fill:#000000"
>
53
</text>
<text
id="a54"
x="330"
y="760"
style="fill:#000000"
>
54
</text>
<text
id="a55"
x="430"
y="760"
style="fill:#000000"
>
55
</text>
<text
id="a56"
x="530"
y="760"
style="fill:#000000"
>
56
</text>
<text
id="a57"
x="630"
y="760"
style="fill:#000000"
>
57
</text>

<text
id="a61"
x="30"
y="860"
style="fill:#000000"
>
61
</text>
<text
id="a62"
x="130"
y="860"
style="fill:#000000"
>
62
</text>
<text
id="a63"
x="230"
y="860"
style="fill:#000000"
>
63
</text>
<text
id="a64"
x="330"
y="860"
style="fill:#000000"
>
64
</text>
<text
id="a65"
x="430"
y="860"
style="fill:#000000"
>
65
</text>
<text
id="a66"
x="530"
y="860"
style="fill:#000000"
>
66
</text>
<text
id="a67"
x="630"
y="860"
style="fill:#000000"
>
67
</text>
</g>
</g>
</svg>