<?xml version="1.0" encoding="UTF-8" standalone="no"?>
<!DOCTYPE svg PUBLIC "-//W3C//DTD SVG 1.1//EN"
 "http://www.w3.org/Graphics/SVG/1.1/DTD/svg11.dtd">
<!-- Generated by graphviz version 2.38.0 (20140413.2041)
 -->
<!-- Title: state_machine_2 Pages: 1 -->
<svg width="523pt" height="361pt"
 viewBox="0.00 0.00 522.79 361.28" xmlns="http://www.w3.org/2000/svg" xmlns:xlink="http://www.w3.org/1999/xlink">
<g id="graph0" class="graph" transform="scale(1 1) rotate(0) translate(4 357.279)">
<title>state_machine_2</title>
<polygon fill="white" stroke="none" points="-4,4 -4,-357.279 518.794,-357.279 518.794,4 -4,4"/>
<!-- stStart -->
<g id="PV.start" class="node"><title>stStart</title>
<ellipse fill="grey" stroke="black" cx="45.496" cy="-316.132" rx="33.2788" ry="33.2788"/>
<ellipse fill="none" stroke="black" cx="45.496" cy="-316.132" rx="37.2947" ry="37.2947"/>
<text text-anchor="middle" x="45.496" y="-312.432" font-family="Times,serif" font-size="14.00">stStart</text>
</g>
<!-- stProcess -->
<g id="PV.process" class="node"><title>stProcess</title>
<ellipse fill="grey" stroke="black" cx="45.496" cy="-182.489" rx="45.4919" ry="45.4919"/>
<text text-anchor="middle" x="45.496" y="-178.789" font-family="Times,serif" font-size="14.00">stProcess</text>
</g>
<!-- stStart&#45;&gt;stProcess -->
<g id="PV.start2process" class="edge"><title>stStart&#45;&gt;stProcess</title>
<path fill="none" stroke="black" d="M45.496,-278.812C45.496,-266.319 45.496,-252.038 45.496,-238.4"/>
<polygon fill="black" stroke="black" points="48.9961,-238.136 45.496,-228.136 41.9961,-238.136 48.9961,-238.136"/>
<text text-anchor="middle" x="76.496" y="-249.785" font-family="Times,serif" font-size="14.00">SS(startup)</text>
</g>
<!-- stFinish -->
<g id="PV.finish" class="node"><title>stFinish</title>
<ellipse fill="grey" stroke="black" cx="45.496" cy="-42.9965" rx="38.9934" ry="38.9934"/>
<ellipse fill="none" stroke="black" cx="45.496" cy="-42.9965" rx="42.9931" ry="42.9931"/>
<text text-anchor="middle" x="45.496" y="-39.2965" font-family="Times,serif" font-size="14.00">stFinish</text>
</g>
<!-- stProcess&#45;&gt;stFinish -->
<g id="PV.process2finish" class="edge"><title>stProcess&#45;&gt;stFinish</title>
<path fill="none" stroke="black" d="M45.496,-136.849C45.496,-123.852 45.496,-109.539 45.496,-96.1245"/>
<polygon fill="black" stroke="black" points="48.9961,-96.0778 45.496,-86.0778 41.9961,-96.0779 48.9961,-96.0778"/>
<text text-anchor="middle" x="84.996" y="-107.793" font-family="Times,serif" font-size="14.00">SS(shutdown)</text>
</g>
<!-- led0 -->
<g id="PV.led0" class="node"><title>led0</title>
<ellipse fill="grey" stroke="black" cx="127.496" cy="-316.132" rx="27.0966" ry="27.0966"/>
<text text-anchor="middle" x="127.496" y="-312.432" font-family="Times,serif" font-size="14.00">led0</text>
</g>
<!-- led1 -->
<g id="PV.led1" class="node"><title>led1</title>
<ellipse fill="grey" stroke="black" cx="199.496" cy="-316.132" rx="26.7961" ry="26.7961"/>
<text text-anchor="middle" x="199.496" y="-312.432" font-family="Times,serif" font-size="14.00">led1</text>
</g>
<!-- led2 -->
<g id="PV.led2" class="node"><title>led2</title>
<ellipse fill="grey" stroke="black" cx="270.496" cy="-316.132" rx="26.7961" ry="26.7961"/>
<text text-anchor="middle" x="270.496" y="-312.432" font-family="Times,serif" font-size="14.00">led2</text>
</g>
<!-- led3 -->
<g id="PV.led3" class="node"><title>led3</title>
<ellipse fill="grey" stroke="black" cx="341.496" cy="-316.132" rx="26.7961" ry="26.7961"/>
<text text-anchor="middle" x="341.496" y="-312.432" font-family="Times,serif" font-size="14.00">led3</text>
</g>
<!-- led4 -->
<g id="PV.led4" class="node"><title>led4</title>
<ellipse fill="grey" stroke="black" cx="414.496" cy="-316.132" rx="27.8951" ry="27.8951"/>
<text text-anchor="middle" x="414.496" y="-312.432" font-family="Times,serif" font-size="14.00">led4</text>
</g>
<!-- led5 -->
<g id="PV.led5" class="node"><title>led5</title>
<ellipse fill="grey" stroke="black" cx="487.496" cy="-316.132" rx="27.0966" ry="27.0966"/>
<text text-anchor="middle" x="487.496" y="-312.432" font-family="Times,serif" font-size="14.00">led5</text>
</g>
</g>
</svg>
