<?xml version="1.0" encoding="UTF-8" standalone="no"?>
<!DOCTYPE svg PUBLIC "-//W3C//DTD SVG 1.1//EN"
 "http://www.w3.org/Graphics/SVG/1.1/DTD/svg11.dtd">
<!-- Generated by graphviz version 2.28.0 (20130127.0148)
 -->
<!-- Title: state_machine_2 Pages: 1 -->
<svg width="516pt" height="364pt"
 viewBox="0.00 0.00 516.00 364.00" xmlns="http://www.w3.org/2000/svg" xmlns:xlink="http://www.w3.org/1999/xlink">
<g id="graph1" class="graph" transform="scale(1 1) rotate(0) translate(4 360)">
<title>state_machine_2</title>
<polygon fill="white" stroke="white" points="-4,5 -4,-360 513,-360 513,5 -4,5"/>
<!-- stStart -->
<g id="PV.start" class="node"><title>stStart</title>
<ellipse fill="grey" stroke="black" cx="45" cy="-319" rx="33.2129" ry="33.2788"/>
<ellipse fill="none" stroke="black" cx="45" cy="-319" rx="37.2209" ry="37.2947"/>
<text text-anchor="middle" x="45" y="-315.3" font-family="Times,serif" font-size="14.00">stStart</text>
</g>
<!-- stProcess -->
<g id="PV.process" class="node"><title>stProcess</title>
<ellipse fill="grey" stroke="black" cx="45" cy="-184" rx="45.244" ry="45.4919"/>
<text text-anchor="middle" x="45" y="-180.3" font-family="Times,serif" font-size="14.00">stProcess</text>
</g>
<!-- stStart&#45;&gt;stProcess -->
<g id="PV.start2process" class="edge"><title>stStart&#45;&gt;stProcess</title>
<path fill="none" stroke="black" d="M45,-281.657C45,-268.784 45,-253.998 45,-239.926"/>
<polygon fill="black" stroke="black" points="48.5001,-239.842 45,-229.842 41.5001,-239.842 48.5001,-239.842"/>
<text text-anchor="middle" x="76" y="-252.3" font-family="Times,serif" font-size="14.00">SS(startup)</text>
</g>
<!-- stFinish -->
<g id="PV.finish" class="node"><title>stFinish</title>
<ellipse fill="grey" stroke="black" cx="45" cy="-43" rx="38.5415" ry="38.9934"/>
<ellipse fill="none" stroke="black" cx="45" cy="-43" rx="42.4949" ry="42.9931"/>
<text text-anchor="middle" x="45" y="-39.3" font-family="Times,serif" font-size="14.00">stFinish</text>
</g>
<!-- stProcess&#45;&gt;stFinish -->
<g id="PV.process2finish" class="edge"><title>stProcess&#45;&gt;stFinish</title>
<path fill="none" stroke="black" d="M45,-138.254C45,-124.973 45,-110.305 45,-96.5752"/>
<polygon fill="black" stroke="black" points="48.5001,-96.2973 45,-86.2973 41.5001,-96.2973 48.5001,-96.2973"/>
<text text-anchor="middle" x="84.5" y="-108.3" font-family="Times,serif" font-size="14.00">SS(shutdown)</text>
</g>
<!-- led0 -->
<g id="PV.led0" class="node"><title>led0</title>
<ellipse fill="grey" stroke="black" cx="127" cy="-319" rx="26.4705" ry="26.7961"/>
<text text-anchor="middle" x="127" y="-315.3" font-family="Times,serif" font-size="14.00">led0</text>
</g>
<!-- led1 -->
<g id="PV.led1" class="node"><title>led1</title>
<ellipse fill="grey" stroke="black" cx="198" cy="-319" rx="26.4705" ry="26.7961"/>
<text text-anchor="middle" x="198" y="-315.3" font-family="Times,serif" font-size="14.00">led1</text>
</g>
<!-- led2 -->
<g id="PV.led2" class="node"><title>led2</title>
<ellipse fill="grey" stroke="black" cx="269" cy="-319" rx="26.4705" ry="26.7961"/>
<text text-anchor="middle" x="269" y="-315.3" font-family="Times,serif" font-size="14.00">led2</text>
</g>
<!-- led3 -->
<g id="PV.led3" class="node"><title>led3</title>
<ellipse fill="grey" stroke="black" cx="340" cy="-319" rx="26.4705" ry="26.7961"/>
<text text-anchor="middle" x="340" y="-315.3" font-family="Times,serif" font-size="14.00">led3</text>
</g>
<!-- led4 -->
<g id="PV.led4" class="node"><title>led4</title>
<ellipse fill="grey" stroke="black" cx="411" cy="-319" rx="26.4705" ry="26.7961"/>
<text text-anchor="middle" x="411" y="-315.3" font-family="Times,serif" font-size="14.00">led4</text>
</g>
<!-- led5 -->
<g id="PV.led5" class="node"><title>led5</title>
<ellipse fill="grey" stroke="black" cx="482" cy="-319" rx="26.4705" ry="26.7961"/>
<text text-anchor="middle" x="482" y="-315.3" font-family="Times,serif" font-size="14.00">led5</text>
</g>
</g>
</svg>
