<?xml version="1.0" encoding="UTF-8" standalone="no"?>
<!DOCTYPE svg PUBLIC "-//W3C//DTD SVG 1.1//EN"
 "http://www.w3.org/Graphics/SVG/1.1/DTD/svg11.dtd">
<!-- Generated by graphviz version 2.40.1 (20161225.0304)
 -->
<!-- Title: state_machine_1 Pages: 1 -->
<svg width="472pt" height="99pt"
 viewBox="0.00 0.00 472.28 98.99" xmlns="http://www.w3.org/2000/svg" xmlns:xlink="http://www.w3.org/1999/xlink">
<g id="graph0" class="graph" transform="scale(1 1) rotate(0) translate(4 94.9919)">
<title>state_machine_1</title>
<polygon fill="#ffffff" stroke="transparent" points="-4,4 -4,-94.9919 468.2791,-94.9919 468.2791,4 -4,4"/>
<!-- stStart -->
<g id="start" class="node">
<title>stStart</title>
<ellipse fill="none" stroke="#000000" cx="37.1471" cy="-45.496" rx="33.2788" ry="33.2788"/>
<ellipse fill="none" stroke="#000000" cx="37.1471" cy="-45.496" rx="37.2947" ry="37.2947"/>
<text text-anchor="middle" x="37.1471" y="-41.796" font-family="Times,serif" font-size="14.00" fill="#000000">stStart</text>
</g>
<!-- stProcess -->
<g id="process" class="node">
<title>stProcess</title>
<ellipse fill="none" stroke="#000000" cx="217.7901" cy="-45.496" rx="45.4919" ry="45.4919"/>
<text text-anchor="middle" x="217.7901" y="-41.796" font-family="Times,serif" font-size="14.00" fill="#000000">stProcess</text>
</g>
<!-- stStart&#45;&gt;stProcess -->
<g id="start2process" class="edge">
<title>stStart&#45;&gt;stProcess</title>
<path fill="none" stroke="#000000" d="M74.5764,-45.496C99.7953,-45.496 133.5082,-45.496 161.8892,-45.496"/>
<polygon fill="#000000" stroke="#000000" points="162.0786,-48.9961 172.0786,-45.496 162.0785,-41.9961 162.0786,-48.9961"/>
<text text-anchor="middle" x="123.2941" y="-49.296" font-family="Times,serif" font-size="14.00" fill="#000000">SS(startup)</text>
</g>
<!-- stFinish -->
<g id="finish" class="node">
<title>stFinish</title>
<ellipse fill="none" stroke="#000000" cx="421.2826" cy="-45.496" rx="38.9934" ry="38.9934"/>
<ellipse fill="none" stroke="#000000" cx="421.2826" cy="-45.496" rx="42.9931" ry="42.9931"/>
<text text-anchor="middle" x="421.2826" y="-41.796" font-family="Times,serif" font-size="14.00" fill="#000000">stFinish</text>
</g>
<!-- stProcess&#45;&gt;stFinish -->
<g id="process2finish" class="edge">
<title>stProcess&#45;&gt;stFinish</title>
<path fill="none" stroke="#000000" d="M263.4578,-45.496C294.4387,-45.496 335.5075,-45.496 367.9848,-45.496"/>
<polygon fill="#000000" stroke="#000000" points="368.2039,-48.9961 378.2038,-45.496 368.2038,-41.9961 368.2039,-48.9961"/>
<text text-anchor="middle" x="320.786" y="-49.296" font-family="Times,serif" font-size="14.00" fill="#000000">SS(shutdown)</text>
</g>
</g>
</svg>
