<?xml version="1.0" encoding="UTF-8" standalone="no"?>
<!DOCTYPE svg PUBLIC "-//W3C//DTD SVG 1.1//EN"
 "http://www.w3.org/Graphics/SVG/1.1/DTD/svg11.dtd">
<!-- Generated by graphviz version 2.28.0 (20130127.0148)
 -->
<!-- Title: state_machine_2 Pages: 1 -->
<svg width="474pt" height="98pt"
 viewBox="0.00 0.00 474.00 98.00" xmlns="http://www.w3.org/2000/svg" xmlns:xlink="http://www.w3.org/1999/xlink">
<g id="graph1" class="graph" transform="scale(1 1) rotate(0) translate(4 94)">
<title>state_machine_2</title>
<polygon fill="white" stroke="white" points="-4,5 -4,-94 471,-94 471,5 -4,5"/>
<!-- stStart -->
<g id="start" class="node"><title>stStart</title>
<ellipse fill="none" stroke="black" cx="37" cy="-45" rx="33.2788" ry="33.2788"/>
<ellipse fill="none" stroke="black" cx="37" cy="-45" rx="37.2947" ry="37.2947"/>
<text text-anchor="middle" x="37" y="-41.3" font-family="Times,serif" font-size="14.00">stStart</text>
</g>
<!-- stProcess -->
<g id="process" class="node"><title>stProcess</title>
<ellipse fill="none" stroke="black" cx="218" cy="-45" rx="45.4919" ry="45.4919"/>
<text text-anchor="middle" x="218" y="-41.3" font-family="Times,serif" font-size="14.00">stProcess</text>
</g>
<!-- stStart&#45;&gt;stProcess -->
<g id="start2process" class="edge"><title>stStart&#45;&gt;stProcess</title>
<path fill="none" stroke="black" d="M74.2233,-45C99.4257,-45 133.49,-45 162.024,-45"/>
<polygon fill="black" stroke="black" points="162.26,-48.5001 172.26,-45 162.26,-41.5001 162.26,-48.5001"/>
<text text-anchor="middle" x="123" y="-48.8" font-family="Times,serif" font-size="14.00">SS(startup)</text>
</g>
<!-- stFinish -->
<g id="finish" class="node"><title>stFinish</title>
<ellipse fill="none" stroke="black" cx="423" cy="-45" rx="38.9934" ry="38.9934"/>
<ellipse fill="none" stroke="black" cx="423" cy="-45" rx="42.9931" ry="42.9931"/>
<text text-anchor="middle" x="423" y="-41.3" font-family="Times,serif" font-size="14.00">stFinish</text>
</g>
<!-- stProcess&#45;&gt;stFinish -->
<g id="process2finish" class="edge"><title>stProcess&#45;&gt;stFinish</title>
<path fill="none" stroke="black" d="M263.549,-45C294.827,-45 336.774,-45 369.651,-45"/>
<polygon fill="black" stroke="black" points="369.982,-48.5001 379.982,-45 369.982,-41.5001 369.982,-48.5001"/>
<text text-anchor="middle" x="322" y="-48.8" font-family="Times,serif" font-size="14.00">SS(shutdown)</text>
</g>
</g>
</svg>
