<?xml version="1.0" encoding="utf-8"?>
<!-- Generator: Adobe Illustrator 13.0.2, SVG Export Plug-In  -->
<!DOCTYPE svg PUBLIC "-//W3C//DTD SVG 1.1//EN" "http://www.w3.org/Graphics/SVG/1.1/DTD/svg11.dtd" [
	<!ENTITY ns_flows "http://ns.adobe.com/Flows/1.0/">
]>
<svg version="1.1"
	 xmlns="http://www.w3.org/2000/svg" xmlns:xlink="http://www.w3.org/1999/xlink" xmlns:a="http://ns.adobe.com/AdobeSVGViewerExtensions/3.0/"
	 x="0px" y="0px" width="330px" height="330px" viewBox="0 0 330 330" enable-background="new 0 0 330 330" xml:space="preserve">
<defs>
</defs>
<linearGradient id="SVGID_1_" gradientUnits="userSpaceOnUse" x1="-22.897" y1="128.3965" x2="85.7304" y2="19.7691" gradientTransform="matrix(1 0 0 -1 102.5 208)">
	<stop  offset="0" style="stop-color:#F2F2F2"/>
	<stop  offset="1" style="stop-color:#808080"/>
</linearGradient>
<path fill="url(#SVGID_1_)" d="M150,300.002c-82.709,0-150-67.291-150-150C0,67.291,67.291,0,150,0s150,67.291,150,150.002
	C300,232.711,232.709,300.002,150,300.002L150,300.002z"/>
<linearGradient id="SVGID_2_" gradientUnits="userSpaceOnUse" x1="-20.5806" y1="126.0815" x2="84.4745" y2="21.0264" gradientTransform="matrix(1 0 0 -1 102.5 208)">
	<stop  offset="0" style="stop-color:#E6E6E6"/>
	<stop  offset="1" style="stop-color:#BFBFBF"/>
</linearGradient>
<path fill="url(#SVGID_2_)" d="M150,5.001c-80.08,0-145,64.92-145,145s64.92,145,145,145s145-64.92,145-145S230.081,5.001,150,5.001
	z"/>
<linearGradient id="SVGID_3_" gradientUnits="userSpaceOnUse" x1="-35.7417" y1="140.9712" x2="143.9234" y2="-38.6939" gradientTransform="matrix(0.9756 0 0 -0.9756 97.2318 199.8918)">
	<stop  offset="0" style="stop-color:#808080"/>
	<stop  offset="0.509" style="stop-color:#B8B8B8"/>
	<stop  offset="1" style="stop-color:#F2F2F2"/>
</linearGradient>
<path fill="url(#SVGID_3_)" d="M150.011,274.002c-68.38,0-124.012-55.628-124.012-124.002S81.631,26,150.011,26
	C218.378,26.001,274,81.626,274,150S218.378,274.002,150.011,274.002L150.011,274.002z"/>
<path fill="#333333" d="M150.01,271.002c-66.724,0-121.009-54.281-121.009-121.001c0-66.719,54.285-121,121.009-121
	c66.715,0,120.991,54.281,120.991,121C271.001,216.721,216.725,271.002,150.01,271.002L150.01,271.002z"/>
<radialGradient id="SVGID_4_" cx="53.0718" cy="41.4814" r="128.083" gradientTransform="matrix(0.9756 0 0 -0.9756 97.2318 199.8918)" gradientUnits="userSpaceOnUse">
	<stop  offset="0" style="stop-color:#8A8A8A"/>
	<stop  offset="0.188" style="stop-color:#9F9F9F"/>
	<stop  offset="0.4267" style="stop-color:#B2B2B2"/>
	<stop  offset="0.6689" style="stop-color:#BEBEBE"/>
	<stop  offset="0.9176" style="stop-color:#C2C2C2"/>
	<stop  offset="1" style="stop-color:#000000"/>
</radialGradient>
<path fill="url(#SVGID_4_)" d="M150.01,30.001c-66.282,0-120.01,53.727-120.01,120c0,66.272,53.728,120,120.01,120
	c66.268,0,119.99-53.728,119.99-120C270,83.728,216.277,30.001,150.01,30.001z"/>
<path fill="#4D4D4D" d="M152.065,44.994c0,2.651-0.983,4.114-2.711,4.114c-1.522,0-2.554-1.427-2.578-4.006
	c0-2.614,1.127-4.054,2.711-4.054C151.129,41.048,152.065,42.512,152.065,44.994z M147.832,45.114c0,2.027,0.624,3.178,1.583,3.178
	c1.08,0,1.595-1.259,1.595-3.25c0-1.919-0.491-3.179-1.583-3.179C148.503,41.864,147.832,42.991,147.832,45.114z"/>
<path fill="#4D4D4D" d="M90.667,60.342v0.779h-2.962v-0.779H90.667z"/>
<path fill="#4D4D4D" d="M93.859,57.164h-0.024l-1.354,0.732l-0.204-0.804l1.703-0.912h0.899v7.796h-1.02V57.164z"/>
<path fill="#4D4D4D" d="M102.905,59.994c0,2.651-0.983,4.114-2.71,4.114c-1.523,0-2.555-1.427-2.579-4.006
	c0-2.614,1.128-4.054,2.711-4.054C101.969,56.048,102.905,57.512,102.905,59.994z M98.671,60.114c0,2.027,0.624,3.178,1.583,3.178
	c1.079,0,1.595-1.259,1.595-3.25c0-1.919-0.491-3.179-1.583-3.179C99.343,56.864,98.671,57.991,98.671,60.114z"/>
<path fill="#4D4D4D" d="M203.174,57.164h-0.023l-1.354,0.732l-0.204-0.804l1.703-0.912h0.898v7.796h-1.02V57.164z"/>
<path fill="#4D4D4D" d="M212.221,59.994c0,2.651-0.982,4.114-2.71,4.114c-1.522,0-2.555-1.427-2.579-4.006
	c0-2.614,1.129-4.054,2.711-4.054C211.286,56.048,212.221,57.512,212.221,59.994z M207.988,60.114c0,2.027,0.623,3.178,1.582,3.178
	c1.08,0,1.596-1.259,1.596-3.25c0-1.919-0.491-3.179-1.583-3.179C208.66,56.864,207.988,57.991,207.988,60.114z"/>
<path fill="#4D4D4D" d="M237.883,100.476v-0.647l0.828-0.804c1.991-1.895,2.891-2.902,2.902-4.078c0-0.792-0.385-1.523-1.547-1.523
	c-0.709,0-1.295,0.36-1.655,0.66l-0.336-0.744c0.54-0.456,1.308-0.792,2.207-0.792c1.679,0,2.387,1.151,2.387,2.267
	c0,1.439-1.044,2.603-2.687,4.186l-0.625,0.576v0.024h3.502v0.875H237.883L237.883,100.476z"/>
<path fill="#4D4D4D" d="M249.221,96.494c0,2.651-0.982,4.114-2.71,4.114c-1.522,0-2.555-1.427-2.579-4.006
	c0-2.614,1.129-4.054,2.711-4.054C248.286,92.548,249.221,94.012,249.221,96.494z M244.988,96.614c0,2.027,0.623,3.178,1.582,3.178
	c1.08,0,1.596-1.259,1.596-3.25c0-1.919-0.491-3.179-1.583-3.179C245.66,93.364,244.988,94.491,244.988,96.614z"/>
<path fill="#4D4D4D" d="M253.135,152.765c0.301,0.191,0.996,0.491,1.729,0.491c1.354,0,1.773-0.863,1.763-1.511
	c-0.013-1.092-0.995-1.56-2.015-1.56h-0.588v-0.792h0.588c0.768,0,1.738-0.396,1.738-1.319c0-0.624-0.396-1.175-1.367-1.175
	c-0.623,0-1.224,0.276-1.559,0.516l-0.275-0.768c0.406-0.3,1.199-0.6,2.037-0.6c1.535,0,2.231,0.912,2.231,1.859
	c0,0.804-0.479,1.487-1.438,1.835v0.024c0.959,0.192,1.738,0.911,1.738,2.002c0,1.248-0.972,2.339-2.842,2.339
	c-0.876,0-1.645-0.276-2.027-0.528L253.135,152.765z"/>
<path fill="#4D4D4D" d="M264.221,149.994c0,2.651-0.982,4.114-2.709,4.114c-1.523,0-2.556-1.427-2.58-4.006
	c0-2.614,1.129-4.054,2.711-4.054C263.286,146.048,264.221,147.512,264.221,149.994z M259.988,150.115
	c0,2.026,0.623,3.178,1.582,3.178c1.08,0,1.596-1.26,1.596-3.25c0-1.919-0.491-3.179-1.583-3.179
	C260.66,146.864,259.988,147.991,259.988,150.115z"/>
<path fill="#4D4D4D" d="M241.146,207.477v-2.123h-3.623v-0.695l3.479-4.979h1.14v4.846h1.092v0.828h-1.092v2.123H241.146
	L241.146,207.477z M241.146,204.525v-2.603c0-0.407,0.013-0.815,0.035-1.224h-0.035c-0.239,0.456-0.433,0.792-0.647,1.15
	l-1.907,2.65v0.023h2.555V204.525z"/>
<path fill="#4D4D4D" d="M249.221,203.494c0,2.65-0.982,4.113-2.71,4.113c-1.522,0-2.555-1.426-2.579-4.006
	c0-2.613,1.129-4.054,2.711-4.054C248.286,199.548,249.221,201.011,249.221,203.494z M244.988,203.615
	c0,2.025,0.623,3.178,1.582,3.178c1.08,0,1.596-1.26,1.596-3.25c0-1.919-0.491-3.179-1.583-3.179
	C245.66,200.364,244.988,201.492,244.988,203.615z"/>
<path fill="#4D4D4D" d="M204.538,241.568h-2.976l-0.299,2.002c0.18-0.023,0.348-0.047,0.635-0.047c0.601,0,1.199,0.131,1.681,0.42
	c0.61,0.348,1.114,1.02,1.114,2.002c0,1.522-1.211,2.662-2.901,2.662c-0.853,0-1.572-0.238-1.942-0.479l0.264-0.804
	c0.324,0.192,0.959,0.432,1.666,0.432c0.996,0,1.848-0.647,1.848-1.69c-0.012-1.008-0.684-1.728-2.242-1.728
	c-0.443,0-0.792,0.048-1.08,0.084l0.504-3.741h3.73L204.538,241.568L204.538,241.568z"/>
<path fill="#4D4D4D" d="M211.221,244.494c0,2.65-0.982,4.113-2.71,4.113c-1.522,0-2.555-1.426-2.579-4.006
	c0-2.613,1.129-4.054,2.711-4.054C210.286,240.548,211.221,242.011,211.221,244.494z M206.988,244.615
	c0,2.025,0.623,3.178,1.582,3.178c1.08,0,1.596-1.26,1.596-3.25c0-1.919-0.491-3.179-1.583-3.179
	C207.66,241.364,206.988,242.492,206.988,244.615z"/>
<path fill="#4D4D4D" d="M53.667,97.342v0.779h-2.962v-0.779H53.667z"/>
<path fill="#4D4D4D" d="M54.568,100.976v-0.647l0.828-0.804c1.99-1.895,2.89-2.902,2.902-4.078c0-0.792-0.384-1.523-1.548-1.523
	c-0.707,0-1.295,0.36-1.654,0.66L54.76,93.84c0.54-0.456,1.307-0.792,2.207-0.792c1.68,0,2.387,1.151,2.387,2.267
	c0,1.439-1.043,2.603-2.687,4.186l-0.623,0.576v0.024h3.502v0.875H54.568z"/>
<path fill="#4D4D4D" d="M65.905,96.994c0,2.651-0.983,4.114-2.71,4.114c-1.523,0-2.555-1.427-2.579-4.006
	c0-2.614,1.128-4.054,2.711-4.054C64.969,93.048,65.905,94.512,65.905,96.994z M61.671,97.114c0,2.027,0.624,3.178,1.583,3.178
	c1.079,0,1.595-1.259,1.595-3.25c0-1.919-0.491-3.179-1.583-3.179C62.343,93.864,61.671,94.991,61.671,97.114z"/>
<path fill="#4D4D4D" d="M38.667,151.342v0.779h-2.962v-0.779H38.667z"/>
<path fill="#4D4D4D" d="M39.82,153.765c0.3,0.191,0.995,0.491,1.728,0.491c1.354,0,1.774-0.863,1.763-1.511
	c-0.012-1.092-0.995-1.56-2.015-1.56h-0.588v-0.792h0.588c0.768,0,1.738-0.395,1.738-1.319c0-0.624-0.396-1.175-1.367-1.175
	c-0.623,0-1.223,0.276-1.559,0.516l-0.276-0.768c0.408-0.3,1.199-0.6,2.039-0.6c1.535,0,2.23,0.912,2.23,1.859
	c0,0.804-0.479,1.487-1.438,1.834v0.025c0.959,0.191,1.738,0.91,1.738,2.002c0,1.248-0.971,2.339-2.842,2.339
	c-0.876,0-1.644-0.276-2.027-0.528L39.82,153.765z"/>
<path fill="#4D4D4D" d="M50.905,150.994c0,2.651-0.983,4.114-2.71,4.114c-1.523,0-2.555-1.427-2.579-4.006
	c0-2.614,1.128-4.054,2.711-4.054C49.969,147.048,50.905,148.512,50.905,150.994z M46.671,151.115c0,2.026,0.624,3.178,1.583,3.178
	c1.079,0,1.595-1.26,1.595-3.25c0-1.919-0.491-3.179-1.583-3.179C47.343,147.864,46.671,148.991,46.671,151.115z"/>
<circle fill="#333333" cx="54.344" cy="150.976" r="2"/>
<circle fill="#333333" cx="245.344" cy="150.976" r="2"/>
<circle fill="#333333" cx="232.549" cy="103.226" r="2"/>
<circle fill="#333333" cx="197.594" cy="68.271" r="2"/>
<circle fill="#333333" cx="149.844" cy="55.476" r="2"/>
<circle fill="#333333" cx="197.594" cy="233.682" r="2"/>
<circle fill="#333333" cx="102.095" cy="68.271" r="2.001"/>
<circle fill="#333333" cx="232.55" cy="198.727" r="2"/>
<circle fill="#333333" cx="67.139" cy="103.226" r="2"/>
<circle fill="#666666" cx="244.82" cy="140.993" r="1"/>
<circle fill="#666666" cx="243.257" cy="131.12" r="0.999"/>
<circle fill="#666666" cx="240.67" cy="121.464" r="1"/>
<circle fill="#666666" cx="237.088" cy="112.132" r="1"/>
<circle fill="#666666" cx="227.105" cy="94.842" r="1"/>
<circle fill="#666666" cx="220.814" cy="87.075" r="1"/>
<circle fill="#666666" cx="213.746" cy="80.005" r="0.999"/>
<circle fill="#666666" cx="205.979" cy="73.714" r="0.999"/>
<circle fill="#666666" cx="188.688" cy="63.733" r="1"/>
<circle fill="#666666" cx="179.355" cy="60.15" r="1"/>
<circle fill="#666666" cx="169.7" cy="57.563" r="0.999"/>
<circle fill="#666666" cx="159.827" cy="55.999" r="1.001"/>
<circle fill="#666666" cx="139.862" cy="56" r="1"/>
<circle fill="#666666" cx="129.99" cy="57.563" r="0.999"/>
<circle fill="#666666" cx="120.333" cy="60.15" r="1"/>
<path fill="#666666" d="M110.594,62.818c0.505-0.223,1.096,0.004,1.319,0.508c0.226,0.504,0.001,1.096-0.506,1.32
	c-0.505,0.225-1.096-0.002-1.319-0.508C109.862,63.636,110.088,63.044,110.594,62.818z"/>
<circle fill="#666666" cx="205.979" cy="228.237" r="1.001"/>
<circle fill="#666666" cx="93.711" cy="73.714" r="0.999"/>
<circle fill="#666666" cx="213.748" cy="221.947" r="0.999"/>
<circle fill="#666666" cx="85.943" cy="80.006" r="1"/>
<circle fill="#666666" cx="220.816" cy="214.877" r="1"/>
<circle fill="#666666" cx="78.875" cy="87.075" r="1"/>
<circle fill="#666666" cx="227.105" cy="207.109" r="1"/>
<path fill="#666666" d="M71.774,94.255c0.326-0.447,0.951-0.547,1.396-0.221c0.447,0.324,0.548,0.947,0.222,1.395
	c-0.323,0.449-0.95,0.547-1.396,0.221C71.549,95.328,71.449,94.703,71.774,94.255z"/>
<circle fill="#666666" cx="237.088" cy="189.819" r="1.001"/>
<circle fill="#666666" cx="62.601" cy="112.132" r="0.999"/>
<circle fill="#666666" cx="240.671" cy="180.488" r="0.999"/>
<circle fill="#666666" cx="59.02" cy="121.464" r="1"/>
<circle fill="#666666" cx="243.258" cy="170.832" r="1"/>
<path fill="#666666" d="M55.454,130.914c0.115-0.543,0.646-0.887,1.186-0.77c0.541,0.113,0.887,0.645,0.771,1.186
	c-0.115,0.539-0.646,0.883-1.188,0.77C55.684,131.986,55.338,131.455,55.454,130.914z"/>
<circle fill="#666666" cx="244.82" cy="160.958" r="1"/>
<circle fill="#666666" cx="54.868" cy="140.994" r="1"/>
<path fill="#666666" d="M81.883,185.646c4.983,0,8.058,3.813,8.058,7.998c0,4.98-3.999,8.24-8.243,8.24
	c-4.798,0-8.059-3.627-8.059-7.874c-0.062-4.733,3.63-8.364,8.183-8.364H81.883z M81.698,188.537c-3.138,0-4.736,2.832-4.736,5.415
	c0,2.829,2.09,5.044,4.797,5.044c2.768,0,4.859-2.215,4.859-5.229c0-2.338-1.353-5.23-4.859-5.23H81.698z"/>
<path fill="#666666" d="M125.058,226.491c-1.968,0.983-5.905,2.032-10.95,2.032c-11.684,0-20.482-7.443-20.482-21.039
	c0-12.979,8.798-21.776,21.653-21.776c5.168,0,8.424,1.106,9.842,1.845l-1.292,4.367c-2.032-0.98-4.924-1.722-8.367-1.722
	c-9.719,0-16.178,6.213-16.178,17.103c0,10.149,5.842,16.67,15.931,16.67c3.263,0,6.583-0.676,8.734-1.723L125.058,226.491z"/>
</svg>
