<?xml version="1.0" encoding="UTF-8" standalone="no"?>
<!-- Created with Inkscape (http://www.inkscape.org/) -->
<svg
   xmlns:dc="http://purl.org/dc/elements/1.1/"
   xmlns:cc="http://creativecommons.org/ns#"
   xmlns:rdf="http://www.w3.org/1999/02/22-rdf-syntax-ns#"
   xmlns:svg="http://www.w3.org/2000/svg"
   xmlns="http://www.w3.org/2000/svg"
   xmlns:xlink="http://www.w3.org/1999/xlink"
   xmlns:sodipodi="http://sodipodi.sourceforge.net/DTD/sodipodi-0.dtd"
   xmlns:inkscape="http://www.inkscape.org/namespaces/inkscape"
   version="1.0"
   width="210"
   height="210"
   viewBox="0 0 82 82"
   id="svg3469"
   xml:space="preserve"
   sodipodi:version="0.32"
   inkscape:version="0.46"
   sodipodi:docname="navigation_button_center_ico.svg"
   inkscape:output_extension="org.inkscape.output.svg.inkscape"><metadata
   id="metadata2445"><rdf:RDF><cc:Work
       rdf:about=""><dc:format>image/svg+xml</dc:format><dc:type
         rdf:resource="http://purl.org/dc/dcmitype/StillImage" /></cc:Work></rdf:RDF></metadata><sodipodi:namedview
   inkscape:window-height="480"
   inkscape:window-width="640"
   inkscape:pageshadow="2"
   inkscape:pageopacity="0.0"
   guidetolerance="10.0"
   gridtolerance="10.0"
   objecttolerance="10.0"
   borderopacity="1.0"
   bordercolor="#666666"
   pagecolor="#ffffff"
   id="base"
   showgrid="false" />
<defs
   id="defs3471"><linearGradient
     id="linearGradient6800"><stop
       id="stop6802"
       style="stop-color:#ffffff;stop-opacity:1"
       offset="0" /><stop
       id="stop6804"
       style="stop-color:#ffffff;stop-opacity:0"
       offset="1" /></linearGradient><linearGradient
     id="linearGradient6792"><stop
       id="stop6794"
       style="stop-color:#ffffff;stop-opacity:1"
       offset="0" /><stop
       id="stop6796"
       style="stop-color:#ffffff;stop-opacity:0"
       offset="1" /></linearGradient><linearGradient
     x1="40.8395"
     y1="1.9759037"
     x2="41"
     y2="37.37751"
     id="linearGradient6798"
     xlink:href="#linearGradient6792"
     gradientUnits="userSpaceOnUse"
     gradientTransform="matrix(0.3904762,0,0,0.3904762,24.990476,24.990475)" /><linearGradient
     x1="39.682732"
     y1="79.859444"
     x2="39.847389"
     y2="68.333336"
     id="linearGradient6806"
     xlink:href="#linearGradient6800"
     gradientUnits="userSpaceOnUse"
     gradientTransform="matrix(0.3904762,0,0,0.3904762,24.990476,24.990475)" /></defs>
<g
   transform="matrix(0.3904762,0,0,0.3904762,24.990476,24.990475)"
   id="g3706">
	<linearGradient
   x1="-14.439"
   y1="-16.7803"
   x2="93.464996"
   y2="95.686699"
   id="SVGID_1_"
   gradientUnits="userSpaceOnUse">
		<stop
   id="stop3709"
   style="stop-color:#ffffff;stop-opacity:1"
   offset="0" />
		<stop
   id="stop3711"
   style="stop-color:#000000;stop-opacity:1"
   offset="1" />
	</linearGradient>
	<path
   d="M 69.984,12.008 C 69.984,12.007 69.984,12.007 69.984,12.008 C 62.566,4.585 52.318,0 41,0 C 29.677,0 19.43,4.585 12.013,12.005 L 12.013,12.005 C 4.592,19.43 0,29.682 0,41 C 0,52.318 4.592,62.57 12.012,69.995 L 12.012,69.995 C 19.43,77.415 29.677,82 41,82 C 52.318,82 62.566,77.415 69.984,69.993 C 69.984,69.993 69.984,69.993 69.984,69.992 C 77.406,62.569 82,52.317 82,41 C 82,29.683 77.406,19.431 69.984,12.008 z"
   id="path3713"
   style="fill:url(#SVGID_1_)" />
	<radialGradient
   cx="18.971701"
   cy="7.0556998"
   r="75.801399"
   id="SVGID_2_"
   gradientUnits="userSpaceOnUse">
		<stop
   id="stop3716"
   style="stop-color:#ffffff;stop-opacity:1"
   offset="0" />
		<stop
   id="stop3718"
   style="stop-color:#616161;stop-opacity:1"
   offset="1" />
	</radialGradient>
	<path
   d="M 41,80 C 30.58,80 20.789,75.944 13.426,68.582 C 6.058,61.209 2,51.413 2,41 C 2,30.586 6.058,20.791 13.426,13.418 C 20.79,6.056 30.581,2 41,2 C 51.417,2 61.207,6.056 68.57,13.42 C 75.94,20.793 79.998,30.586 79.998,41 C 79.998,51.413 75.94,61.207 68.57,68.578 C 61.207,75.944 51.418,80 41,80 L 41,80 z"
   id="path3720"
   style="fill:url(#SVGID_2_)" />
</g>
<path
   d="M 40.936743,36.726237 C 46.728286,36.726237 51.935286,39.141723 55.542114,42.986742 C 55.691666,42.169475 55.773666,41.330342 55.773666,40.471685 C 55.773666,32.545018 49.132057,26.120904 40.937133,26.120904 C 32.742209,26.120904 26.10099,32.545018 26.10099,40.471685 C 26.10099,41.330342 26.183381,42.169475 26.332933,42.986742 C 29.938981,39.141333 35.145981,36.726237 40.936743,36.726237 z"
   id="path3722"
   style="opacity:0.8;fill:url(#linearGradient6798);fill-opacity:1" />
<path
   d="M 30.908143,51.397207 C 30.908143,51.397207 35.386514,52.444077 40.911752,52.444077 C 46.43699,52.444077 50.91419,51.397207 50.91419,51.397207 C 50.91419,51.397207 47.580695,55.394907 40.911752,55.394907 C 34.544647,55.394907 30.908143,51.397207 30.908143,51.397207 z"
   id="path3724"
   style="opacity:0.8;fill:url(#linearGradient6806);fill-opacity:1" />
<g
   transform="matrix(0.3718812,0,0,0.3718812,14.367449,10.872284)"
   id="g3874">
				<g
   id="g3876">
					<path
   d="M 80.7817,97.8643 C 80.228,97.8643 79.7807,97.4161 79.7807,96.8633 L 79.7807,96.8633 C 79.7807,96.3096 80.228,95.8633 80.7817,95.8633 L 80.7817,95.8633 L 89.6147,95.8613 L 89.6167,89.3633 C 89.6167,88.8115 90.063,88.3643 90.6157,88.3643 L 90.6157,88.3643 C 91.1655,88.3643 91.6137,88.8116 91.6137,89.3633 L 91.6137,89.3633 L 91.6137,96.8633 C 91.6137,97.1299 91.5112,97.3809 91.3217,97.5703 L 91.3217,97.5703 C 91.1342,97.7598 90.8813,97.8642 90.6156,97.8642 L 90.6156,97.8642 L 80.7817,97.8642 L 80.7817,97.8643 z M 53.6167,97.8643 C 53.353,97.8643 53.0957,97.7559 52.9082,97.5704 L 52.9082,97.5704 C 52.7227,97.3849 52.6157,97.127 52.6157,96.8634 L 52.6157,96.8634 L 52.6157,89.3634 L 52.6177,89.3634 C 52.6177,88.8116 53.0645,88.3644 53.6167,88.3644 L 53.6167,88.3644 C 54.1685,88.3644 54.6152,88.8117 54.6152,89.3634 L 54.6152,89.3634 L 54.6152,95.8634 L 63.7817,95.8634 C 64.3354,95.8634 64.7827,96.3116 64.7827,96.8634 L 64.7827,96.8634 C 64.7827,97.4161 64.3354,97.8644 63.7817,97.8644 L 63.7817,97.8644 L 53.6167,97.8644 L 53.6167,97.8643 z M 89.6147,74.3652 L 89.6147,67.8637 L 80.7817,67.8657 C 80.2299,67.8657 79.7807,67.4165 79.7807,66.8647 L 79.7807,66.8647 C 79.7807,66.311 80.2299,65.8637 80.7817,65.8637 L 80.7817,65.8637 L 90.6157,65.8637 C 90.8813,65.8637 91.1343,65.9687 91.3218,66.1586 L 91.3218,66.1586 C 91.5113,66.3481 91.6138,66.5971 91.6138,66.8647 L 91.6138,66.8647 L 91.6138,74.3652 L 91.6158,74.3652 C 91.6158,74.917 91.1676,75.3637 90.6158,75.3637 L 90.6158,75.3637 C 90.063,75.3638 89.6147,74.917 89.6147,74.3652 L 89.6147,74.3652 z M 52.6157,74.3652 L 52.6157,66.8647 C 52.6157,66.601 52.7226,66.3437 52.9082,66.1586 L 52.9082,66.1586 C 53.0957,65.9711 53.353,65.8637 53.6167,65.8637 L 53.6167,65.8637 L 63.7817,65.8637 C 64.3354,65.8637 64.7827,66.311 64.7827,66.8647 L 64.7827,66.8647 C 64.7827,67.4165 64.3354,67.8637 63.7817,67.8637 L 63.7817,67.8637 L 54.6152,67.8657 L 54.6172,74.3652 C 54.6172,74.917 54.1685,75.3637 53.6167,75.3637 L 53.6167,75.3637 C 53.0645,75.3638 52.6157,74.917 52.6157,74.3652 L 52.6157,74.3652 z"
   id="path3878"
   style="fill:#666666" />
				</g>
				<g
   id="g3880">
					<path
   d="M 79.7817,96.8643 C 79.228,96.8643 78.7807,96.4161 78.7807,95.8633 L 78.7807,95.8633 C 78.7807,95.3096 79.228,94.8633 79.7817,94.8633 L 79.7817,94.8633 L 88.6147,94.8613 L 88.6167,88.3633 C 88.6167,87.8115 89.063,87.3643 89.6157,87.3643 L 89.6157,87.3643 C 90.1655,87.3643 90.6137,87.8116 90.6137,88.3633 L 90.6137,88.3633 L 90.6137,95.8633 C 90.6137,96.1299 90.5112,96.3809 90.3217,96.5703 L 90.3217,96.5703 C 90.1342,96.7598 89.8813,96.8642 89.6156,96.8642 L 89.6156,96.8642 L 79.7817,96.8642 L 79.7817,96.8643 z M 52.6167,96.8643 C 52.353,96.8643 52.0957,96.7559 51.9082,96.5704 L 51.9082,96.5704 C 51.7227,96.3849 51.6157,96.127 51.6157,95.8634 L 51.6157,95.8634 L 51.6157,88.3634 L 51.6177,88.3634 C 51.6177,87.8116 52.0645,87.3644 52.6167,87.3644 L 52.6167,87.3644 C 53.1685,87.3644 53.6152,87.8117 53.6152,88.3634 L 53.6152,88.3634 L 53.6152,94.8634 L 62.7817,94.8634 C 63.3354,94.8634 63.7827,95.3116 63.7827,95.8634 L 63.7827,95.8634 C 63.7827,96.4161 63.3354,96.8644 62.7817,96.8644 L 62.7817,96.8644 L 52.6167,96.8644 L 52.6167,96.8643 z M 88.6147,73.3652 L 88.6147,66.8637 L 79.7817,66.8657 C 79.2299,66.8657 78.7807,66.4165 78.7807,65.8647 L 78.7807,65.8647 C 78.7807,65.311 79.2299,64.8637 79.7817,64.8637 L 79.7817,64.8637 L 89.6157,64.8637 C 89.8813,64.8637 90.1343,64.9687 90.3218,65.1586 L 90.3218,65.1586 C 90.5113,65.3481 90.6138,65.5971 90.6138,65.8647 L 90.6138,65.8647 L 90.6138,73.3652 L 90.6158,73.3652 C 90.6158,73.917 90.1676,74.3637 89.6158,74.3637 L 89.6158,74.3637 C 89.063,74.3638 88.6147,73.917 88.6147,73.3652 L 88.6147,73.3652 z M 51.6157,73.3652 L 51.6157,65.8647 C 51.6157,65.601 51.7226,65.3437 51.9082,65.1586 L 51.9082,65.1586 C 52.0957,64.9711 52.353,64.8637 52.6167,64.8637 L 52.6167,64.8637 L 62.7817,64.8637 C 63.3354,64.8637 63.7827,65.311 63.7827,65.8647 L 63.7827,65.8647 C 63.7827,66.4165 63.3354,66.8637 62.7817,66.8637 L 62.7817,66.8637 L 53.6152,66.8657 L 53.6172,73.3652 C 53.6172,73.917 53.1685,74.3637 52.6167,74.3637 L 52.6167,74.3637 C 52.0645,74.3638 51.6157,73.917 51.6157,73.3652 L 51.6157,73.3652 z"
   id="path3882"
   style="fill:none;stroke:#666666;stroke-width:2;stroke-linecap:round;stroke-linejoin:round" />
				</g>
				<g
   id="g3884">
					<path
   d="M 80.7817,97.8643 C 80.228,97.8643 79.7807,97.4161 79.7807,96.8633 L 79.7807,96.8633 C 79.7807,96.3096 80.228,95.8633 80.7817,95.8633 L 80.7817,95.8633 L 89.6147,95.8613 L 89.6167,89.3633 C 89.6167,88.8115 90.063,88.3643 90.6157,88.3643 L 90.6157,88.3643 C 91.1655,88.3643 91.6137,88.8116 91.6137,89.3633 L 91.6137,89.3633 L 91.6137,96.8633 C 91.6137,97.1299 91.5112,97.3809 91.3217,97.5703 L 91.3217,97.5703 C 91.1342,97.7598 90.8813,97.8642 90.6156,97.8642 L 90.6156,97.8642 L 80.7817,97.8642 L 80.7817,97.8643 z M 53.6167,97.8643 C 53.353,97.8643 53.0957,97.7559 52.9082,97.5704 L 52.9082,97.5704 C 52.7227,97.3849 52.6157,97.127 52.6157,96.8634 L 52.6157,96.8634 L 52.6157,89.3634 L 52.6177,89.3634 C 52.6177,88.8116 53.0645,88.3644 53.6167,88.3644 L 53.6167,88.3644 C 54.1685,88.3644 54.6152,88.8117 54.6152,89.3634 L 54.6152,89.3634 L 54.6152,95.8634 L 63.7817,95.8634 C 64.3354,95.8634 64.7827,96.3116 64.7827,96.8634 L 64.7827,96.8634 C 64.7827,97.4161 64.3354,97.8644 63.7817,97.8644 L 63.7817,97.8644 L 53.6167,97.8644 L 53.6167,97.8643 z M 89.6147,74.3652 L 89.6147,67.8637 L 80.7817,67.8657 C 80.2299,67.8657 79.7807,67.4165 79.7807,66.8647 L 79.7807,66.8647 C 79.7807,66.311 80.2299,65.8637 80.7817,65.8637 L 80.7817,65.8637 L 90.6157,65.8637 C 90.8813,65.8637 91.1343,65.9687 91.3218,66.1586 L 91.3218,66.1586 C 91.5113,66.3481 91.6138,66.5971 91.6138,66.8647 L 91.6138,66.8647 L 91.6138,74.3652 L 91.6158,74.3652 C 91.6158,74.917 91.1676,75.3637 90.6158,75.3637 L 90.6158,75.3637 C 90.063,75.3638 89.6147,74.917 89.6147,74.3652 L 89.6147,74.3652 z M 52.6157,74.3652 L 52.6157,66.8647 C 52.6157,66.601 52.7226,66.3437 52.9082,66.1586 L 52.9082,66.1586 C 53.0957,65.9711 53.353,65.8637 53.6167,65.8637 L 53.6167,65.8637 L 63.7817,65.8637 C 64.3354,65.8637 64.7827,66.311 64.7827,66.8647 L 64.7827,66.8647 C 64.7827,67.4165 64.3354,67.8637 63.7817,67.8637 L 63.7817,67.8637 L 54.6152,67.8657 L 54.6172,74.3652 C 54.6172,74.917 54.1685,75.3637 53.6167,75.3637 L 53.6167,75.3637 C 53.0645,75.3638 52.6157,74.917 52.6157,74.3652 L 52.6157,74.3652 z"
   id="path3886"
   style="fill:none;stroke:#ffffff;stroke-width:2;stroke-linecap:round;stroke-linejoin:round" />
				</g>
			</g></svg>