<?xml version="1.0" encoding="UTF-8" standalone="no"?>
<!-- Created with Inkscape (http://www.inkscape.org/) -->
<svg
   xmlns:svg="http://www.w3.org/2000/svg"
   xmlns="http://www.w3.org/2000/svg"
   xmlns:xlink="http://www.w3.org/1999/xlink"
   version="1.0"
   width="90"
   height="180"
   viewBox="0 -26.361 90 180"
   id="svg3731"
   xml:space="preserve">
<defs
   id="defs3733"><linearGradient
     id="linearGradient6764"><stop
       id="stop6766"
       style="stop-color:#ffffff;stop-opacity:1"
       offset="0" /><stop
       id="stop6768"
       style="stop-color:#ffffff;stop-opacity:0"
       offset="1" /></linearGradient><linearGradient
     id="linearGradient6756"><stop
       id="stop6758"
       style="stop-color:#ffffff;stop-opacity:1"
       offset="0" /><stop
       id="stop6760"
       style="stop-color:#ffffff;stop-opacity:0"
       offset="1" /></linearGradient><linearGradient
     x1="26.024096"
     y1="5.4462285"
     x2="28.554216"
     y2="37.253456"
     id="linearGradient6762"
     xlink:href="#linearGradient6756"
     gradientUnits="userSpaceOnUse" /><linearGradient
     x1="26.385542"
     y1="118.81118"
     x2="27.469879"
     y2="86.77153"
     id="linearGradient6770"
     xlink:href="#linearGradient6764"
     gradientUnits="userSpaceOnUse" /></defs>
<g
   id="g3968">
	<linearGradient
   x1="30.2017"
   y1="163.0752"
   x2="30.2017"
   y2="7.9552999"
   id="SVGID_1_"
   gradientUnits="userSpaceOnUse">
		<stop
   id="stop3971"
   style="stop-color:#ffffff;stop-opacity:1"
   offset="0" />
		<stop
   id="stop3973"
   style="stop-color:#f0f0f0;stop-opacity:1"
   offset="0.0688" />
		<stop
   id="stop3975"
   style="stop-color:#c8c8c8;stop-opacity:1"
   offset="0.2016" />
		<stop
   id="stop3977"
   style="stop-color:#888888;stop-opacity:1"
   offset="0.38499999" />
		<stop
   id="stop3979"
   style="stop-color:#303030;stop-opacity:1"
   offset="0.60960001" />
		<stop
   id="stop3981"
   style="stop-color:#000000;stop-opacity:1"
   offset="0.72530001" />
	</linearGradient>
	<path
   d="M 26.564,127.278 L 60.403,93.229 C 52.777,85.649 48.037,75.162 48,63.57 C 47.963,51.978 52.637,41.46 60.214,33.831 L 26.158,0 C -8.878,35.261 -8.695,92.242 26.564,127.278 z"
   id="path3983"
   style="fill:url(#SVGID_1_)" />
	<radialGradient
   cx="18.2188"
   cy="15.5093"
   r="93.568604"
   id="SVGID_2_"
   gradientUnits="userSpaceOnUse">
		<stop
   id="stop3986"
   style="stop-color:#e1ff00;stop-opacity:1"
   offset="0" />
		<stop
   id="stop3988"
   style="stop-color:#b6df04;stop-opacity:1"
   offset="0.35139999" />
		<stop
   id="stop3990"
   style="stop-color:#5f9c0b;stop-opacity:1"
   offset="1" />
	</radialGradient>
	<path
   d="M 26.573,124.434 C 10.784,108.037 2.073,86.555 2,63.716 C 1.928,40.88 10.502,19.344 26.184,2.843 L 57.415,33.873 C 50.004,42.026 45.965,52.498 46,63.575 C 46.036,74.654 50.143,85.099 57.608,93.207 L 26.573,124.434 L 26.573,124.434 z"
   id="path3992"
   style="opacity:0.86000001;fill:url(#SVGID_2_)" />
	<linearGradient
   x1="44.189499"
   y1="89.257797"
   x2="15.5754"
   y2="30.1222"
   id="SVGID_3_"
   gradientUnits="userSpaceOnUse">
		<stop
   id="stop3995"
   style="stop-color:#cde800;stop-opacity:1"
   offset="0" />
		<stop
   id="stop3997"
   style="stop-color:#a2c202;stop-opacity:1"
   offset="0.32780001" />
		<stop
   id="stop3999"
   style="stop-color:#416b08;stop-opacity:1"
   offset="1" />
	</linearGradient>
	<path
   d="M 26.612,121.558 C -3.34,88.927 -3.5,38.543 26.241,5.721 L 54.677,33.971 C 47.73,42.271 43.965,52.645 44,63.582 C 44.036,74.52 47.867,84.87 54.866,93.125 L 26.612,121.558 L 26.612,121.558 z"
   id="path4001"
   style="fill:url(#SVGID_3_)" />
</g>
<path
   d="M 55.044,33.789 C 55.044,33.789 39.294,26.754 27.887,27.698 C 16.476,28.626 7.198,39.246 7.198,39.246 C 7.198,39.246 17.443,8.676 26.291,8.176 C 32.099,7.848 55.044,33.789 55.044,33.789 z"
   id="path4003"
   style="opacity:0.8;fill:url(#linearGradient6762);fill-opacity:1" />
<path
   d="M 8.432,91.316 C 8.432,91.316 18.57,98.334 29.362,100.108 C 40.153,101.896 53.959,93.444 53.959,93.444 C 53.959,93.444 29.831,119.399 26.267,118.801 C 19.026,117.589 8.432,91.316 8.432,91.316 z"
   id="path4005"
   style="opacity:0.8;fill:url(#linearGradient6770);fill-opacity:1" />
<g
   transform="translate(15.99985,-15.2488)"
   id="g6522">
				<g
   id="g6524">
					<path
   d="M 11.2695,85.8867 C 10.7451,85.8701 10.3198,85.4512 10.2993,84.9267 L 10.2993,84.9267 L 10.1636,81.539 L 9.1314,81.6132 L 8.9957,81.6152 L 8.2457,81.5654 L 8.1222,81.6133 L 7.7603,84.873 C 7.7007,85.3955 7.2525,85.7812 6.7286,85.7617 L 6.7286,85.7617 C 6.2042,85.7422 5.7848,85.3232 5.7667,84.7969 L 5.7667,84.7969 L 5.6622,81.9033 L 4.9873,81.915 L 4.6811,84.9863 C 4.6293,85.5078 4.1816,85.9004 3.6572,85.8867 L 3.6572,85.8867 C 3.1328,85.8701 2.7075,85.4512 2.687,84.9267 L 2.687,84.9267 L 2.5683,81.9706 L 2.5038,82.0214 C 2.288,82.1972 2.0062,82.2724 1.7309,82.2343 L 1.7309,82.2343 C 1.5156,82.2011 1.3178,82.0995 1.1674,81.9472 L 1.1674,81.9472 C 0.8144,82.0058 0.4413,81.8749 0.2079,81.5722 L 0.2079,81.5722 C -0.1295,81.1337 -0.047,80.5048 0.3905,80.1679 L 0.3905,80.1679 L 0.8387,79.8241 C 1.0565,79.6561 1.3343,79.5858 1.6053,79.6288 L 1.6053,79.6288 C 1.6795,79.6405 1.7508,79.66 1.8192,79.6874 L 1.8192,79.6874 L 2.204,72.7714 C 2.2323,72.2387 2.6767,71.8236 3.2108,71.8276 L 3.2108,71.8276 C 3.7435,71.832 4.1791,72.2534 4.202,72.7876 L 4.202,72.7876 L 4.4876,79.9219 L 4.9725,79.9151 L 5.3368,72.8082 C 5.3632,72.274 5.8095,71.8546 6.3441,71.8585 L 6.3441,71.8585 C 6.8763,71.8629 7.3143,72.2906 7.3348,72.8229 L 7.3348,72.8229 L 7.5819,79.6779 L 7.7294,79.6213 L 8.1552,79.5549 L 9.0595,79.6135 L 9.4355,79.5881 L 9.8159,72.7717 C 9.8467,72.239 10.289,71.8239 10.8232,71.8279 L 10.8232,71.8279 C 11.3559,71.8323 11.7915,72.2537 11.8139,72.7879 L 11.8139,72.7879 L 12.1,79.9222 L 12.5849,79.9154 L 12.9487,72.8085 C 12.9756,72.2743 13.4218,71.8549 13.956,71.8588 L 13.956,71.8588 C 14.4887,71.8632 14.9262,72.2909 14.9472,72.8232 L 14.9472,72.8232 L 15.1943,79.6782 L 15.3418,79.6216 C 15.6543,79.5005 16.0098,79.5435 16.2832,79.7388 L 16.2832,79.7388 L 17.0337,80.273 C 17.4839,80.5923 17.5884,81.2173 17.27,81.6666 L 17.27,81.6666 C 16.9492,82.1178 16.3242,82.2213 15.876,81.9029 L 15.876,81.9029 L 15.7149,81.7886 L 15.3726,84.8736 C 15.313,85.3961 14.8648,85.7818 14.3409,85.7623 L 14.3409,85.7623 C 13.8165,85.7428 13.3971,85.3238 13.3785,84.7975 L 13.3785,84.7975 L 13.274,81.9039 L 12.5997,81.9156 L 12.2931,84.9869 C 12.2428,85.4996 11.8097,85.8873 11.2975,85.8873 L 11.2975,85.8873 C 11.2881,85.8867 11.2788,85.8867 11.2695,85.8867 L 11.2695,85.8867 z"
   id="path6526"
   style="fill:#666666" />
				</g>
				<g
   id="g6528">
					<path
   d="M 12.2681,86.8867 C 11.7437,86.8701 11.3203,86.4512 11.2998,85.9277 L 11.2998,85.9277 L 11.1641,82.539 L 10.1319,82.6132 L 9.9962,82.6152 L 9.2462,82.5654 L 9.1227,82.6133 L 8.7588,85.873 C 8.7012,86.3935 8.2529,86.7802 7.7285,86.7617 L 7.7285,86.7617 C 7.2046,86.7412 6.7851,86.3222 6.7666,85.7969 L 6.7666,85.7969 L 6.6621,82.9033 L 5.9873,82.915 L 5.6811,85.9843 C 5.6293,86.5068 5.1811,86.9013 4.6572,86.8866 L 4.6572,86.8866 C 4.1328,86.87 3.707,86.4511 3.6865,85.9276 L 3.6865,85.9276 L 3.5683,82.9706 L 3.5038,83.0214 C 3.2875,83.1972 3.0062,83.2734 2.7304,83.2323 L 2.7304,83.2323 C 2.5156,83.2011 2.3178,83.0995 2.1669,82.9471 L 2.1669,82.9471 C 1.8148,83.0057 1.4423,82.8748 1.2094,82.5721 L 1.2094,82.5721 C 0.872,82.1336 0.9521,81.5047 1.3901,81.1698 L 1.3901,81.1698 L 1.8383,80.8241 C 2.0561,80.6561 2.3339,80.5858 2.6054,80.6288 L 2.6054,80.6288 C 2.6791,80.6405 2.7509,80.66 2.8193,80.6874 L 2.8193,80.6874 L 3.2036,73.7724 C 3.2344,73.2377 3.6763,72.8227 4.2109,72.8286 L 4.2109,72.8286 C 4.7431,72.8306 5.1792,73.2544 5.2016,73.7866 L 5.2016,73.7866 L 5.4877,80.9219 L 5.9726,80.9141 L 6.3369,73.8072 C 6.3633,73.275 6.8096,72.8555 7.3423,72.8594 L 7.3423,72.8594 C 7.8765,72.8638 8.3145,73.2891 8.335,73.8238 L 8.335,73.8238 L 8.5826,80.6778 L 8.73,80.6211 L 9.1553,80.5547 L 10.0581,80.6152 L 10.436,80.5859 L 10.8164,73.7724 C 10.8452,73.2377 11.2876,72.8227 11.8218,72.8286 L 11.8218,72.8286 C 12.3565,72.8306 12.7925,73.2544 12.815,73.7866 L 12.815,73.7866 L 13.1011,80.9219 L 13.586,80.9141 L 13.9498,73.8072 C 13.9767,73.275 14.421,72.8555 14.9552,72.8594 L 14.9552,72.8594 C 15.4899,72.8638 15.9279,73.2891 15.9464,73.8238 L 15.9464,73.8238 L 16.1949,80.6778 L 16.3428,80.6212 C 16.6533,80.5001 17.0093,80.545 17.2827,80.7384 L 17.2827,80.7384 L 18.0327,81.2726 L 18.0351,81.2726 C 18.4833,81.5919 18.5903,82.2169 18.2695,82.6662 L 18.2695,82.6662 C 17.9487,83.1174 17.3257,83.2219 16.8755,82.9025 L 16.8755,82.9025 L 16.7144,82.7882 L 16.3716,85.8732 C 16.314,86.3937 15.8662,86.7804 15.3399,86.7619 L 15.3399,86.7619 C 14.8155,86.7414 14.398,86.3224 14.3795,85.7971 L 14.3795,85.7971 L 14.2745,82.9035 L 13.5982,82.9152 L 13.294,85.9845 C 13.2418,86.4982 12.8101,86.8878 12.296,86.8878 L 12.296,86.8878 C 12.2866,86.8877 12.2773,86.8867 12.2681,86.8867 L 12.2681,86.8867 z"
   id="path6530"
   style="fill:#ffffff" />
				</g>
			</g></svg>