<?xml version="1.0" encoding="UTF-8" standalone="no"?>
<!-- Generator: Adobe Illustrator 13.0.2, SVG Export Plug-In  -->
<svg
   xmlns:dc="http://purl.org/dc/elements/1.1/"
   xmlns:cc="http://web.resource.org/cc/"
   xmlns:rdf="http://www.w3.org/1999/02/22-rdf-syntax-ns#"
   xmlns:svg="http://www.w3.org/2000/svg"
   xmlns="http://www.w3.org/2000/svg"
   xmlns:sodipodi="http://sodipodi.sourceforge.net/DTD/sodipodi-0.dtd"
   xmlns:inkscape="http://www.inkscape.org/namespaces/inkscape"
   version="1.0"
   x="0px"
   y="0px"
   width="80"
   height="38"
   viewBox="0 0 80 38"
   enable-background="new 0 0 80 38"
   xml:space="preserve"
   id="svg2"
   sodipodi:version="0.32"
   inkscape:version="0.45.1"
   sodipodi:docname="background.svg"
   sodipodi:docbase="/basyskom/users/dhau/projects/embeddedstories/skins/svgslideswitch/Beryl"
   inkscape:output_extension="org.inkscape.output.svg.inkscape"><metadata
   id="metadata29"><rdf:RDF><cc:Work
       rdf:about=""><dc:format>image/svg+xml</dc:format><dc:type
         rdf:resource="http://purl.org/dc/dcmitype/StillImage" /></cc:Work></rdf:RDF></metadata><sodipodi:namedview
   inkscape:window-height="757"
   inkscape:window-width="1057"
   inkscape:pageshadow="2"
   inkscape:pageopacity="0.0"
   guidetolerance="10.0"
   gridtolerance="10.0"
   objecttolerance="10.0"
   borderopacity="1.0"
   bordercolor="#666666"
   pagecolor="#ffffff"
   id="base"
   width="70px"
   height="38px"
   inkscape:zoom="8.2588235"
   inkscape:cx="42.5"
   inkscape:cy="22.5"
   inkscape:window-x="0"
   inkscape:window-y="0"
   inkscape:current-layer="svg2" />
<defs
   id="defs4">
</defs>
<linearGradient
   id="SVGID_1_"
   gradientUnits="userSpaceOnUse"
   x1="-62.5005"
   y1="-114.9985"
   x2="-62.5005"
   y2="-77"
   gradientTransform="matrix(1.0000125,0,0,-1.0000263,102.50128,-77.002024)">
	<stop
   offset="0"
   style="stop-color:#B3B3B3"
   id="stop7" />
	<stop
   offset="0.0732"
   style="stop-color:#9D9D9D"
   id="stop9" />
	<stop
   offset="0.2248"
   style="stop-color:#676767"
   id="stop11" />
	<stop
   offset="0.4401"
   style="stop-color:#101010"
   id="stop13" />
	<stop
   offset="0.478"
   style="stop-color:#000000"
   id="stop15" />
</linearGradient>
<path
   d="M 69.000864,38 L 11.001138,38 C 4.9350617,38 -3.4781206e-16,33.06487 -3.4781206e-16,27.000711 L -3.4781206e-16,11.00029 C -3.4781206e-16,4.9361298 4.9350617,4.1559638e-15 11.001138,4.1559638e-15 L 69.000864,4.1559638e-15 C 75.064939,4.1559638e-15 80,4.9361298 80,11.00029 L 80,27.000711 C 80,33.06487 75.064939,38 69.000864,38 L 69.000864,38 z "
   id="path17"
   style="fill:url(#SVGID_1_)" />
<path
   d="M 69.000864,36.000947 L 11.000138,36.000947 C 6.0360756,36.000947 2.0000251,31.96384 2.0000251,27.000711 L 2.0000251,10.999289 C 2.0000251,6.0361586 6.0360756,1.9990525 11.000138,1.9990525 L 69.000864,1.9990525 C 73.964925,1.9990525 78.000976,6.0351588 78.000976,10.999289 L 78.000976,27.000711 C 78.000976,31.96384 73.964925,36.000947 69.000864,36.000947 L 69.000864,36.000947 z "
   id="path19"
   style="fill:#757575" />
<linearGradient
   id="SVGID_2_"
   gradientUnits="userSpaceOnUse"
   x1="-62.5005"
   y1="-111.9995"
   x2="-62.5005"
   y2="-80"
   gradientTransform="matrix(1.0000125,0,0,-1.0000263,102.50128,-77.002024)">
	<stop
   offset="0.2747"
   style="stop-color:#121212"
   id="stop22" />
	<stop
   offset="1"
   style="stop-color:#545454"
   id="stop24" />
</linearGradient>
<path
   d="M 77.000964,27.000711 C 77.000964,31.418827 73.418918,35.000921 69.000864,35.000921 L 11.000138,35.000921 C 6.5820824,35.000921 3.0000375,31.418827 3.0000375,27.000711 L 3.0000375,11.00029 C 3.0000375,6.5821731 6.5820824,3.0000789 11.000138,3.0000789 L 69.000864,3.0000789 C 73.418918,3.0000789 77.000964,6.5821731 77.000964,11.00029 L 77.000964,27.000711 z "
   id="path26"
   style="fill:url(#SVGID_2_)" />
</svg>